<svg xmlns="http://www.w3.org/2000/svg" width="157.287" height="75.209" viewBox="0 0 157.287 75.209"><g transform="translate(-116.668 -54.597)"><g transform="translate(116.668 65.494)"><path d="M134.57,139.746h-4.526l-9.66-13.849v13.849h-3.716V93.809h3.716v31.143l7.9-12.836h4.391L124.5,125.357Z" transform="translate(-116.668 -93.809)" fill="#ff5000"/><path d="M192.028,120.793h3.716v4.053h-3.716Zm0,10.808h3.716v27.63h-3.716Z" transform="translate(-171.086 -113.294)" fill="#ff5000"/><path d="M219.983,139.746V93.809H223.7v45.937Z" transform="translate(-191.273 -93.809)" fill="#ff5000"/><path d="M247.938,120.793h3.716v4.053h-3.716Zm0,10.808h3.716v27.63h-3.716Z" transform="translate(-211.46 -113.294)" fill="#ff5000"/><path d="M298.054,162.284l-2.9,2.3a10.914,10.914,0,1,0-8.309,17.9,10.27,10.27,0,0,0,8.107-3.648l2.972,2.3A14.334,14.334,0,0,1,286.84,186.2a14.592,14.592,0,0,1,0-29.184,14.427,14.427,0,0,1,6.283,1.351A14.214,14.214,0,0,1,298.054,162.284Z" transform="translate(-229.014 -139.451)" fill="#ff5000"/><path d="M394.355,122.385a6.976,6.976,0,0,0-2.128-5.235,7.156,7.156,0,0,0-5.168-2.061,7.266,7.266,0,0,0-7.3,7.3v17.362h-3.716V93.809h3.716v20.334a10.954,10.954,0,0,1,18.307,8.242v17.362h-3.716Z" transform="translate(-303.969 -93.809)" fill="#ff5000"/><path d="M469.883,120.793H473.6v4.053h-3.716Zm0,10.808H473.6v27.63h-3.716Z" transform="translate(-371.728 -113.294)" fill="#ff5000"/><path d="M512.431,186.2a14.065,14.065,0,0,1-10.876-4.864v22.428h-3.716V157.758l4.053,3.783a14.572,14.572,0,1,1,20.875,20.334A13.961,13.961,0,0,1,512.431,186.2Zm0-3.716a10.84,10.84,0,1,0-7.7-3.175A10.513,10.513,0,0,0,512.431,182.483Z" transform="translate(-391.916 -139.451)" fill="#ff5000"/><path d="M613.391,180.213a4.62,4.62,0,0,0,4.458,2.7,4.846,4.846,0,0,0,4.932-4.932,4.914,4.914,0,0,0-.98-3.006,4.493,4.493,0,0,0-2.466-1.722l-3.243-.946a7.628,7.628,0,0,1-3.918-2.668,6.943,6.943,0,0,1-1.486-4.357,7.265,7.265,0,0,1,7.3-7.3A7.2,7.2,0,0,1,622,159.2a6.825,6.825,0,0,1,2.668,3.243l-3.377,1.419a3.2,3.2,0,0,0-3.311-2.162,3.369,3.369,0,0,0-2.567,1.081,3.545,3.545,0,0,0-1.013,2.5,3.275,3.275,0,0,0,2.635,3.445l3.243.946a8.093,8.093,0,0,1,4.492,3.04,8.638,8.638,0,0,1-6.924,13.916,8.333,8.333,0,0,1-4.458-1.25,9.254,9.254,0,0,1-3.243-3.411Z" transform="translate(-473.015 -140.153)" fill="#ff5000"/></g><g transform="translate(230.55 54.597)"><path d="M594.958,92.343s-.6-4.075-.636-4.663c-.02-.294-.03-.652-.035-1.063q0-.309-.009-.656t.013-.726c0-.507.033-1.054.066-1.633s.081-1.189.143-1.819.136-1.279.23-1.937.2-1.324.3-1.99c.123-.663.237-1.328.377-1.977s.278-1.287.422-1.9.3-1.206.453-1.765.3-1.086.45-1.568l.212-.693.2-.621c.128-.39.245-.728.346-1.005.2-.555.323-.869.323-.869s-.059.333-.177.909-.283,1.4-.484,2.387l-.321,1.592c-.11.565-.226,1.161-.346,1.777s-.236,1.254-.357,1.9-.234,1.306-.352,1.965-.226,1.318-.325,1.969c-.049.325-.106.647-.152.966l-.14.944c-.05.31-.082.616-.128.915s-.088.591-.12.876c-.066.571-.145,1.11-.2,1.609s-.111.957-.149,1.363c-.011,1.01.061,1.36.017,1.162C594.544,88.376,594.958,92.343,594.958,92.343Z" transform="translate(-575.438 -63.882)" fill="#47a01a"/><path d="M578.282,108.247l-.028-.014a.617.617,0,0,0-.082-.038.9.9,0,0,0-.323-.061,1,1,0,0,0-.476.121.813.813,0,0,0-.224.183.956.956,0,0,0-.089.127.8.8,0,0,1-.129.175.327.327,0,0,1-.135.079.272.272,0,0,1-.092.011.18.18,0,0,1-.031,0,.356.356,0,0,1-.055-.013.45.45,0,0,1-.221-.195c-.043-.064-.074-.124-.105-.163l-.011-.013.007.008,0,0,0,0-.009-.009c-.012-.012-.028-.029-.031-.026a.328.328,0,0,0-.044-.019.473.473,0,0,0-.307.042,1.324,1.324,0,0,0-.172.09c-.029.018-.054.036-.084.057l-.1.071a1.68,1.68,0,0,1-.482.256.747.747,0,0,1-.339.024.923.923,0,0,1-.09-.023l-.043-.017-.021-.009-.011,0-.017-.009,0,0c-.021-.013-.03-.015-.06-.036a.669.669,0,0,1-.08-.062,1.855,1.855,0,0,1-.319-.465.442.442,0,0,0-.249-.229,1.692,1.692,0,0,0-.433-.07,1.411,1.411,0,0,1-.566-.145.778.778,0,0,1-.263-.217.609.609,0,0,1-.087-.169.644.644,0,0,1-.023-.093v-.006c0,.015,0-.027,0-.024v-.1l.005-.055a.442.442,0,0,1,.021-.094.67.67,0,0,1,.067-.152,1.334,1.334,0,0,1,.167-.223,2.577,2.577,0,0,0,.272-.325.4.4,0,0,0,.035-.071l.01-.029a.273.273,0,0,0,.01-.046.4.4,0,0,0-.009-.147,2.447,2.447,0,0,0-.384-.649,1.108,1.108,0,0,1-.162-.369l-.008-.049a.472.472,0,0,1,0-.048.558.558,0,0,1,0-.1.613.613,0,0,1,.051-.179.5.5,0,0,1,.225-.245.357.357,0,0,1,.279-.014.659.659,0,0,0,.179.051.128.128,0,0,0,.106-.058.084.084,0,0,0,.014-.079.057.057,0,0,0-.018-.024.058.058,0,0,1,.024.021.1.1,0,0,1,0,.093.168.168,0,0,1-.123.1.6.6,0,0,1-.205-.017.282.282,0,0,0-.319.233.427.427,0,0,0-.017.129.317.317,0,0,0,.006.061c0,.011.006.034.008.035l.011.034a.934.934,0,0,0,.162.273,2.268,2.268,0,0,1,.5.706.74.74,0,0,1,.038.287c0,.033,0,.043-.007.064-.007.037-.012.052-.019.079a.77.77,0,0,1-.054.136,2.294,2.294,0,0,1-.3.407.916.916,0,0,0-.111.162.256.256,0,0,0-.026.069c0,.01-.006.022-.006.022v.006l0,0v.015l0,.03v.022c0,.006,0-.034,0-.016v0a.149.149,0,0,0,.008.025.157.157,0,0,0,.028.046.351.351,0,0,0,.118.089.742.742,0,0,0,.181.062.928.928,0,0,0,.1.016l.115.01a2.03,2.03,0,0,1,.557.089.83.83,0,0,1,.29.181,1.119,1.119,0,0,1,.188.25,1.672,1.672,0,0,0,.228.365c.01.011.012.009.017.015a.38.38,0,0,0,.046.028l0,0-.01-.005h0l.007,0,.014.006.029.009a.317.317,0,0,0,.145-.005,1.3,1.3,0,0,0,.368-.18l.1-.063c.034-.022.074-.048.112-.069a1.342,1.342,0,0,1,.242-.106.8.8,0,0,1,.561-.006.685.685,0,0,1,.337.391.34.34,0,0,0,.055.084.016.016,0,0,0-.008,0c-.005,0,.013,0,.018,0s0,0,0,0,.017,0,.031-.012c.06-.041.133-.176.234-.26a1.013,1.013,0,0,1,.308-.186,1.051,1.051,0,0,1,.557-.053.849.849,0,0,1,.327.13.615.615,0,0,1,.073.054Z" transform="translate(-559.671 -90.526)" fill="#47a01a"/><path d="M572.344,71.953a.382.382,0,0,1-.141-.189.538.538,0,0,1-.024-.24.656.656,0,0,1,.23-.429.931.931,0,0,1,.21-.129,1.358,1.358,0,0,1,.233-.078,3.3,3.3,0,0,1,.477-.069l-.071.088-.076-.4-.009-.044.037-.037a.35.35,0,0,1,.248-.1.544.544,0,0,1,.236.063,1.007,1.007,0,0,1,.337.288,1.161,1.161,0,0,0,.258.249.268.268,0,0,0,.126.043c.009,0,.019,0,.028,0l.014,0h.012l-.012,0h0l.047-.018c.017-.006.008-.009.014-.011a.232.232,0,0,0,.043-.222.438.438,0,0,0-.145-.25.293.293,0,0,0-.052-.034l-.045-.022-.035-.013a1.05,1.05,0,0,0-.165-.045c-.118-.023-.247-.032-.384-.047-.068-.007-.139-.017-.212-.03a1.155,1.155,0,0,1-.23-.064.478.478,0,0,1-.135-.085.373.373,0,0,1-.032-.033l-.015-.019-.007-.01,0-.005,0,0c.011.02-.017-.03-.014-.026l-.022-.045a.229.229,0,0,1-.015-.045.507.507,0,0,1-.011-.062.423.423,0,0,1,.026-.182.4.4,0,0,1,.03-.068,2.63,2.63,0,0,1,.259-.346.443.443,0,0,0,.067-.112c0-.023,0,0,0-.019.009.009-.032-.024-.1-.056l-.052-.031-.051-.036a.705.705,0,0,1-.109-.105.74.74,0,0,1-.168-.517.684.684,0,0,1,.078-.274.713.713,0,0,1,.182-.219.73.73,0,0,1,.531-.163l-.145.395a.612.612,0,0,1-.184-.2.664.664,0,0,1-.078-.242.77.77,0,0,1,.092-.462.7.7,0,0,1,.157-.192.732.732,0,0,1,.21-.123.879.879,0,0,1,.449-.045,1.052,1.052,0,0,1,.4.151.989.989,0,0,1,.089.063l.021.017.021.018.033.03a1.344,1.344,0,0,1,.141.158,1.931,1.931,0,0,1,.312.7l-.118-.149h0s0,0,0,0a.11.11,0,0,0,.041-.027.19.19,0,0,0,.042-.062.147.147,0,0,0,.009-.031.1.1,0,0,0,0-.021l0-.034-.005-.019a.37.37,0,0,0-.016-.049.565.565,0,0,0-.057-.1,1.793,1.793,0,0,0-.193-.225l.222.06a.42.42,0,0,1-.164.007.379.379,0,0,1-.137-.053c-.019-.011-.038-.023-.054-.036l-.039-.037a.485.485,0,0,1-.066-.074.969.969,0,0,1-.091-.146,1.387,1.387,0,0,1-.063-.143,1.97,1.97,0,0,1-.086-.285,1.751,1.751,0,0,1-.043-.3.726.726,0,0,1,0-.081.582.582,0,0,1,.006-.089l0-.024,0-.012v-.006l0-.015.008-.032a.843.843,0,0,1,.209-.383,1.324,1.324,0,0,1,.529-.339l-.015.393c-.038-.02-.075-.042-.111-.064s-.066-.054-.1-.081-.055-.062-.081-.094-.044-.069-.064-.1-.033-.072-.048-.109l-.033-.112-.019-.114-.006-.114.007-.114.02-.113.034-.111c.015-.036.032-.072.049-.108s.043-.068.064-.1.054-.062.081-.093.064-.054.1-.079.072-.042.109-.062l-.094.264a1.109,1.109,0,0,1-.11-.5.711.711,0,0,1,.063-.281.528.528,0,0,1,.216-.238.538.538,0,0,1,.31-.069.683.683,0,0,1,.272.088,1.363,1.363,0,0,1,.368.32c.051.062.088.111.133.161a1.333,1.333,0,0,0,.135.134.407.407,0,0,0,.273.122.247.247,0,0,0,.21-.157.909.909,0,0,0,.064-.362,2.44,2.44,0,0,0-.037-.4.678.678,0,0,0-.136-.337,1.185,1.185,0,0,0-.329-.216.681.681,0,0,1-.323-.34.725.725,0,0,1-.021-.46.633.633,0,0,1,.27-.362.727.727,0,0,1,.825.062.7.7,0,0,0-.781,0,.534.534,0,0,0-.208.323.6.6,0,0,0,.043.377.522.522,0,0,0,.274.246,1.32,1.32,0,0,1,.4.228.878.878,0,0,1,.217.429,2.658,2.658,0,0,1,.064.445,1.156,1.156,0,0,1-.065.476.579.579,0,0,1-.163.228.512.512,0,0,1-.126.077l-.024.011h0l-.015,0-.009,0-.018,0a.4.4,0,0,1-.073.014.691.691,0,0,1-.5-.171,1.674,1.674,0,0,1-.175-.16c-.053-.055-.1-.117-.146-.164a1.035,1.035,0,0,0-.28-.23.328.328,0,0,0-.133-.039.163.163,0,0,0-.1.027.232.232,0,0,0-.084.212.774.774,0,0,0,.083.323l.076.151-.169.114a.511.511,0,0,1-.049.029c-.014.013-.028.026-.044.038s-.025.031-.038.046l-.032.053-.025.059-.018.064-.01.067,0,.068.005.068.013.066.02.062.027.057.033.051c.014.014.026.028.039.043s.029.023.044.034a.425.425,0,0,1,.048.026l.382.237-.4.155a.9.9,0,0,0-.351.233.52.52,0,0,0-.056.075.409.409,0,0,0-.038.077.237.237,0,0,0-.012.039l-.008.032v0c0-.02,0-.005,0-.01h0v.016a.216.216,0,0,0,0,.043.4.4,0,0,0,0,.051,1.549,1.549,0,0,0,.1.445.878.878,0,0,0,.045.1.5.5,0,0,0,.049.079.089.089,0,0,0,.022.024l.008.009h0s-.028-.015-.048,0l.222.06a2.175,2.175,0,0,1,.243.283,1.024,1.024,0,0,1,.1.188.841.841,0,0,1,.037.11c.005.018.009.044.013.066s0,.031.006.047a.575.575,0,0,1,0,.145.62.62,0,0,1-.036.129.643.643,0,0,1-.143.215.551.551,0,0,1-.242.145.45.45,0,0,1-.327-.033l-.093-.046-.025-.1a1.489,1.489,0,0,0-.23-.538.938.938,0,0,0-.084-.1l-.03-.028-.011-.01-.012-.009a.537.537,0,0,0-.049-.036.6.6,0,0,0-.229-.088.435.435,0,0,0-.221.018.312.312,0,0,0-.083.047.264.264,0,0,0-.057.07.334.334,0,0,0-.041.194.183.183,0,0,0,.067.132l.658.5-.8-.107a.3.3,0,0,0-.217.064.3.3,0,0,0-.076.084.258.258,0,0,0-.035.108.331.331,0,0,0,.068.229c.013.017.028.029.033.036l.031.023.034.021a.651.651,0,0,1,.225.181l.009.013,0,.005c.01.017.006.011.01.018l.02.045a.289.289,0,0,1,.026.1.421.421,0,0,1-.018.187.785.785,0,0,1-.136.232,3.2,3.2,0,0,0-.235.284.091.091,0,0,0-.011.022l-.007.013s0,.013,0,0a.025.025,0,0,0-.005-.012s-.009-.009,0,0l.021.046-.013-.023h0l0,0a.1.1,0,0,0,.033.022.839.839,0,0,0,.154.048c.059.013.12.024.184.033.128.019.266.033.41.066a1.378,1.378,0,0,1,.219.069l.058.026.044.024a.607.607,0,0,1,.113.079.732.732,0,0,1,.231.441.6.6,0,0,1-.013.26.424.424,0,0,1-.171.242.441.441,0,0,1-.073.038l-.047.015h0l-.016,0h-.013l-.018,0-.035,0a.619.619,0,0,1-.072,0,.526.526,0,0,1-.246-.094,1.379,1.379,0,0,1-.3-.318.833.833,0,0,0-.251-.248.224.224,0,0,0-.263-.017l.028-.081.048.4.011.086-.081,0a3.145,3.145,0,0,0-.461.034,1.215,1.215,0,0,0-.218.056.834.834,0,0,0-.2.1.623.623,0,0,0-.235.367.5.5,0,0,0,0,.227.415.415,0,0,0,.044.106A.428.428,0,0,0,572.344,71.953Z" transform="translate(-559.477 -59.508)" fill="#47a01a"/><path d="M592.829,56.041a.588.588,0,0,1-.093-.1.653.653,0,0,1-.065-.126.675.675,0,0,1-.033-.141.856.856,0,0,1,0-.146.812.812,0,0,1,.03-.146.709.709,0,0,1,.063-.139.728.728,0,0,1,.1-.124.682.682,0,0,1,.13-.1l.068-.032.086-.026a.7.7,0,0,1,.164-.015.858.858,0,0,1,.161.024.941.941,0,0,1,.152.058.919.919,0,0,1,.139.088.875.875,0,0,1,.12.118.721.721,0,0,1,.091.149.739.739,0,0,1,.049.173l-.327-.009a1.228,1.228,0,0,1,.2-.527.959.959,0,0,1,.463-.373l.069-.022c.025-.007.058-.013.088-.018a.921.921,0,0,1,.16-.009.9.9,0,0,1,.309.068.758.758,0,0,1,.376.323.773.773,0,0,1,.068.165l-.377-.1a1.062,1.062,0,0,1,.833-.317,1.142,1.142,0,0,1,.794.374.633.633,0,0,1,.072.093.553.553,0,0,1,.061.1,1.686,1.686,0,0,1,.078.182c.044.1.045.049,0,.064,0,0,.026-.01.056-.043a1.4,1.4,0,0,0,.1-.122,1.075,1.075,0,0,1,.14-.156.976.976,0,0,1,.188-.136,1.188,1.188,0,0,1,.828-.108,1.165,1.165,0,0,1,.382.154,1.19,1.19,0,0,1,.164.128.969.969,0,0,1,.069.071c.019.02.043.052.064.078a1.362,1.362,0,0,1,.266.725,1.536,1.536,0,0,1-.127.726,1.673,1.673,0,0,0-.017-.7,1.3,1.3,0,0,0-.119-.318,1.228,1.228,0,0,0-.191-.263.756.756,0,0,0-.057-.055.7.7,0,0,0-.064-.052.932.932,0,0,0-.132-.079,1.033,1.033,0,0,0-.3-.085.947.947,0,0,0-.3.011.775.775,0,0,0-.267.108.589.589,0,0,0-.1.08.718.718,0,0,0-.1.117,1.81,1.81,0,0,1-.122.162.554.554,0,0,1-.233.168.394.394,0,0,1-.1.02.349.349,0,0,1-.061,0l-.032,0-.014,0a.392.392,0,0,1-.171-.078.594.594,0,0,1-.164-.233,1.262,1.262,0,0,0-.066-.149.225.225,0,0,0-.033-.053.277.277,0,0,0-.039-.049.727.727,0,0,0-.486-.216.615.615,0,0,0-.482.165l-.269.273-.108-.368a.349.349,0,0,0-.023-.06.36.36,0,0,0-.04-.056.414.414,0,0,0-.124-.092.478.478,0,0,0-.161-.045.531.531,0,0,0-.081,0l-.032,0-.029.008-.015,0-.007,0h0l.01,0h0a.628.628,0,0,0-.294.21.88.88,0,0,0-.171.362l-.238,1.093-.09-1.1a.412.412,0,0,0-.017-.089.576.576,0,0,0-.041-.088.559.559,0,0,0-.064-.081.661.661,0,0,0-.083-.068.653.653,0,0,0-.1-.051.479.479,0,0,0-.212-.034l-.046,0c-.019.005-.05.016-.059.017a.487.487,0,0,0-.1.051.559.559,0,0,0-.084.079.762.762,0,0,0-.066.1.7.7,0,0,0-.046.114.743.743,0,0,0-.022.124.821.821,0,0,0,0,.128.608.608,0,0,0,.033.127l.029.06Z" transform="translate(-574.251 -54.597)" fill="#47a01a"/><path d="M617.52,63.086a3.864,3.864,0,0,1,.567.287,2.05,2.05,0,0,1,.494.422,1.478,1.478,0,0,1,.3.6,1.174,1.174,0,0,1-.038.7c-.047.116-.1.2-.143.3a.811.811,0,0,0-.09.243.106.106,0,0,0,.007.068.053.053,0,0,0,.014.02s.011.013,0,.005l.015.013c.006.006.01.008.009.006a.57.57,0,0,0,.073.019c.039.007.087.011.143.017a.965.965,0,0,1,.191.037.544.544,0,0,1,.11.05l.027.018.007,0,0,0,.017.014.008.006.03.026a.5.5,0,0,1,.126.486,1.028,1.028,0,0,1-.168.355,1.52,1.52,0,0,1-.246.272l-.125-.377.123.014.119.031.112.047c.035.019.07.039.1.061l.094.072.084.081.075.089.064.1.054.1.043.108.032.113.019.117,0,.121-.011.122-.028.121-.045.117-.043.111-.137.016a2.848,2.848,0,0,1-1.126-.093l.254-.1a.292.292,0,0,0-.025.22.372.372,0,0,0,.132.208.313.313,0,0,0,.094.044.45.45,0,0,0,.071.01c.025,0,.051,0,.081,0a2.093,2.093,0,0,1,.448,0l.023.005.012,0,.025.006c.021.006.05.015.074.024a.842.842,0,0,1,.124.061.814.814,0,0,1,.2.176.771.771,0,0,1,.183.5v.035l0,.025-.011.076a.825.825,0,0,1-.04.129.8.8,0,0,1-.137.223.757.757,0,0,1-.448.254l.023-.321a.844.844,0,0,1,.543.7.766.766,0,0,1-.013.23.813.813,0,0,1-.076.212.8.8,0,0,1-.3.318.7.7,0,0,1-.1.049c-.019.007-.03.013-.055.02l-.046.012a1.075,1.075,0,0,1-.208.03,2.661,2.661,0,0,1-.392-.019,2.046,2.046,0,0,0-.375-.011.622.622,0,0,0-.181.04.54.54,0,0,0-.16.1.556.556,0,0,1,.147-.126.668.668,0,0,1,.183-.073,1.911,1.911,0,0,1,.388-.043,3.33,3.33,0,0,0,.373-.028.888.888,0,0,0,.167-.043l.045-.017c.006,0,.022-.012.033-.017a.486.486,0,0,0,.068-.044.621.621,0,0,0,.2-.253.552.552,0,0,0,.04-.151.5.5,0,0,0,0-.151.563.563,0,0,0-.376-.424l-.612-.179.635-.143a.413.413,0,0,0,.232-.155.436.436,0,0,0,.066-.126.476.476,0,0,0,.015-.066.21.21,0,0,1,0-.024v-.048h0c0-.009,0,.011,0,.009h0a.4.4,0,0,0-.1-.242.415.415,0,0,0-.106-.084.46.46,0,0,0-.058-.026l-.023-.007-.025,0-.012,0h-.009l.009,0h0a1.988,1.988,0,0,0-.359.019c-.038,0-.079,0-.121,0a.975.975,0,0,1-.131-.013.705.705,0,0,1-.273-.118.811.811,0,0,1-.306-.455.738.738,0,0,1,.071-.563l.086-.147.168.046a2.512,2.512,0,0,0,.474.081,2.646,2.646,0,0,0,.481,0l-.18.127c.007-.019.014-.037.023-.056s.009-.039.014-.059l.006-.063,0-.064-.01-.066-.018-.066-.025-.064-.032-.062-.038-.058-.044-.054-.049-.048-.052-.041c-.019-.011-.037-.022-.056-.034l-.057-.027-.06-.018-.061-.01L618.357,67l.354-.285a1.092,1.092,0,0,0,.183-.188.621.621,0,0,0,.111-.206.159.159,0,0,0,0-.1l-.029-.027-.007-.007h0l.014.011h0l-.006,0a.155.155,0,0,0-.032-.017.569.569,0,0,0-.116-.029c-.048-.009-.1-.016-.169-.032a.564.564,0,0,1-.216-.1A.169.169,0,0,1,618.42,66l-.014-.013a.375.375,0,0,1-.047-.054.4.4,0,0,1-.063-.116.453.453,0,0,1-.014-.243,1.109,1.109,0,0,1,.143-.339c.054-.094.117-.183.154-.26a.908.908,0,0,0,.072-.537,1.324,1.324,0,0,0-.208-.541A2.973,2.973,0,0,0,617.52,63.086Z" transform="translate(-592.221 -60.727)" fill="#47a01a"/><path d="M619.289,94.679a.346.346,0,0,0,.035.145.416.416,0,0,0,.091.109.733.733,0,0,0,.253.128,1.267,1.267,0,0,0,.286.052,1.96,1.96,0,0,1,.321.058.8.8,0,0,1,.331.17.539.539,0,0,1,.126.174l.011.025.006.013v0l0,.015v0l.011.037a.517.517,0,0,1,.011.13.583.583,0,0,1-.187.4.54.54,0,0,1-.442.148l.146-.367a1.016,1.016,0,0,1,.286.27.663.663,0,0,1,.126.433v.011l0,.019,0,.009,0,.019a.252.252,0,0,1-.008.032l-.013.041a.538.538,0,0,1-.062.121.6.6,0,0,1-.184.172.529.529,0,0,1-.26.077.435.435,0,0,1-.3-.106l.288-.352a1.164,1.164,0,0,1,.2.2,1.294,1.294,0,0,1,.152.237,1.245,1.245,0,0,1,.132.545,1.055,1.055,0,0,1-.036.287,1.02,1.02,0,0,1-.12.269l-.02.031-.011.016,0,0,0,.006-.009.011-.037.045a.922.922,0,0,1-.12.112.9.9,0,0,1-.257.139,1.025,1.025,0,0,1-.559.027.8.8,0,0,1-.262-.116.687.687,0,0,1-.2-.209.937.937,0,0,1-.1-.241,1.114,1.114,0,0,0-.071-.2c0-.006-.009-.017-.01-.019l-.015-.023a.243.243,0,0,0-.027-.031.308.308,0,0,0-.075-.054.156.156,0,0,0-.168,0l.01-.02c-.028.089-.056.177-.087.265,0-.093.006-.186.011-.279v-.007l.01-.013a.26.26,0,0,1,.266-.075.392.392,0,0,1,.129.055.386.386,0,0,1,.06.046l.022.022.024.029c.113.144.157.306.239.39a.577.577,0,0,0,.666.1.627.627,0,0,0,.144-.094c.023-.019.028-.03.048-.048l.034-.048.009-.012,0-.006,0,0-.008.011h0l.009-.019a.627.627,0,0,0,.069-.334.867.867,0,0,0-.1-.35.9.9,0,0,0-.227-.28l.288-.352s0,0-.007,0a0,0,0,0,0,0,0,.079.079,0,0,0,.04-.012.151.151,0,0,0,.046-.039.192.192,0,0,0,.011-.017.006.006,0,0,0,0,0s0,0,0-.006l0-.019,0-.01h0l0,.016h0v0a.267.267,0,0,0-.042-.161.6.6,0,0,0-.158-.17l-.8-.594.944.227a.155.155,0,0,0,.126-.035.226.226,0,0,0,.092-.136.083.083,0,0,1,.006-.024l-.007-.038v0h0l0,.012h0l0-.005,0-.011a.216.216,0,0,0-.044-.081.51.51,0,0,0-.2-.139,2.371,2.371,0,0,0-.275-.1,1.472,1.472,0,0,1-.3-.121.79.79,0,0,1-.254-.214.418.418,0,0,1-.07-.152A.333.333,0,0,1,619.289,94.679Z" transform="translate(-592.905 -83.541)" fill="#47a01a"/><path d="M606.09,110.023a.774.774,0,0,1,.117.059.842.842,0,0,1,.1.082.76.76,0,0,1,.089.1.967.967,0,0,1,.07.118.811.811,0,0,1,.076.269.893.893,0,0,1,0,.144.8.8,0,0,1-.03.144l-.024.065-.036.071a.8.8,0,0,1-.192.227,1.05,1.05,0,0,1-.124.084.842.842,0,0,1-.6.09l.141-.265a.816.816,0,0,1,.289.474.869.869,0,0,1,.014.283.94.94,0,0,1-.029.143l-.024.07c-.012.026-.016.038-.036.076l-.028.049c-.016.023-.033.046-.049.068a.977.977,0,0,1-.1.106.9.9,0,0,1-.248.152.869.869,0,0,1-.586.029l.273-.143a.7.7,0,0,1-.133.257.752.752,0,0,1-.214.18.781.781,0,0,1-.265.093.81.81,0,0,1-.145.008l-.074-.008-.037-.007-.018,0-.009,0h0l-.016,0-.048-.016c-.026-.011-.053-.023-.079-.035a.823.823,0,0,1-.122-.08.792.792,0,0,1-.28-.48.691.691,0,0,1,.013-.295l.256.283a.46.46,0,0,0-.188.1,3.033,3.033,0,0,1-.283.2.8.8,0,0,1-.211.085l-.061.01-.015,0h-.049c-.017,0-.019,0-.048,0l-.075-.009a.674.674,0,0,1-.392-.245,1.074,1.074,0,0,1-.189-.351,1.174,1.174,0,0,1-.045-.188l-.007-.049,0-.04-.007-.088a2.925,2.925,0,0,0-.059-.595.63.63,0,0,0-.048-.115s-.008-.015,0-.008l-.011-.017c-.007-.01-.016-.025-.021-.031a.5.5,0,0,0-.034-.04.584.584,0,0,0-.463-.178.491.491,0,0,0-.126.026.569.569,0,0,0-.063.026.594.594,0,0,0-.058.032.673.673,0,0,0-.3.465,2.111,2.111,0,0,1-.027.327.209.209,0,0,1-.022.042l-.016.021c-.006,0-.009.009-.017.014a.13.13,0,0,1-.094.021.138.138,0,0,1-.079-.036.062.062,0,0,1-.013-.078c-.019.059.05.086.094.081a.092.092,0,0,0,.057-.024.172.172,0,0,0,.012-.015l.006-.013a.157.157,0,0,0,.009-.032,2.881,2.881,0,0,0-.032-.315.825.825,0,0,1,.295-.634.81.81,0,0,1,.076-.056.867.867,0,0,1,.082-.045.725.725,0,0,1,.183-.06.862.862,0,0,1,.381.014.826.826,0,0,1,.344.184.745.745,0,0,1,.076.077l.027.033.012.016.018.027a.953.953,0,0,1,.091.175,2.631,2.631,0,0,1,.124.677l.009.072.006.04.006.03a.776.776,0,0,0,.036.123.658.658,0,0,0,.124.208.269.269,0,0,0,.144.09h0s.024,0,.034,0h.016l.018,0a.376.376,0,0,0,.086-.038c.066-.04.143-.106.237-.178a.891.891,0,0,1,.387-.185l.339-.059-.083.342a.311.311,0,0,0,.036.218.331.331,0,0,0,.076.092.4.4,0,0,0,.046.031.04.04,0,0,1,.012.007l.048.017-.012,0h.012l.013,0,.027,0a.387.387,0,0,0,.056,0,.333.333,0,0,0,.115-.038.365.365,0,0,0,.1-.075.276.276,0,0,0,.057-.1l.075-.22.2.076a.45.45,0,0,0,.3,0,.5.5,0,0,0,.142-.076.589.589,0,0,0,.058-.054.246.246,0,0,1,.02-.022l.032-.047a.215.215,0,0,1,.014-.026L605.6,112a.622.622,0,0,0,.023-.078.531.531,0,0,0-.043-.333.5.5,0,0,0-.1-.137l-.474-.473.614.208a.607.607,0,0,0,.1.024.657.657,0,0,0,.1,0,.613.613,0,0,0,.207-.047.679.679,0,0,0,.184-.116.734.734,0,0,0,.075-.08l.029-.041.029-.053a.654.654,0,0,0,.031-.454.89.89,0,0,0-.043-.114.987.987,0,0,0-.062-.107.785.785,0,0,0-.081-.1A.773.773,0,0,0,606.09,110.023Z" transform="translate(-580.245 -94.621)" fill="#47a01a"/><path d="M584.9,109.105a2.6,2.6,0,0,1-.526.085c-.088.009-.175.013-.261.017s-.17.013-.252.02a1.923,1.923,0,0,0-.459.093,1.252,1.252,0,0,0-.2.093,1.86,1.86,0,0,0-.2.126c-.258.185-.5.421-.763.649-.13.115-.264.229-.406.337-.07.055-.144.107-.22.157s-.156.094-.237.138l-.148.079-.047-.135a.861.861,0,0,1-.03-.439.762.762,0,0,1,.181-.371.963.963,0,0,0-.033.192.892.892,0,0,0,.007.185.769.769,0,0,0,.043.172.808.808,0,0,0,.074.151l-.195-.056c.246-.22.47-.474.711-.723.121-.125.245-.249.378-.369a3.3,3.3,0,0,1,.433-.338,1.785,1.785,0,0,1,.251-.139,1.333,1.333,0,0,1,.284-.1,1.477,1.477,0,0,1,.29-.037,1.943,1.943,0,0,1,.28.01c.091.008.18.025.267.04s.173.033.258.053C584.557,109.033,584.723,109.072,584.9,109.105Z" transform="translate(-565.952 -93.804)" fill="#47a01a"/><path d="M587.349,94.194l-.066.012a.655.655,0,0,1-.194,0,.857.857,0,0,1-.295-.093,1.281,1.281,0,0,1-.326-.239,1.81,1.81,0,0,1-.293-.375,3.347,3.347,0,0,1-.224-.466,4.048,4.048,0,0,0-.43-.9,1.694,1.694,0,0,0-.342-.332,2.933,2.933,0,0,1-.419-.371,1.561,1.561,0,0,1-.168-.225,1.9,1.9,0,0,1-.123-.233,2.166,2.166,0,0,1-.145-.445,3.528,3.528,0,0,1-.08-.673c-.005-.162,0-.255,0-.255s.035.086.09.238.132.367.24.607a3.242,3.242,0,0,0,.2.367,1.567,1.567,0,0,0,.129.176,1.586,1.586,0,0,0,.153.162,3.932,3.932,0,0,0,.393.3,1.889,1.889,0,0,1,.442.414,2.187,2.187,0,0,1,.28.529c.069.178.117.35.165.512s.091.313.145.445a2.26,2.26,0,0,0,.19.361,1.137,1.137,0,0,0,.445.413.745.745,0,0,0,.17.06Z" transform="translate(-568.191 -79.872)" fill="#47a01a"/><path d="M581.272,100.611h-.045a1.241,1.241,0,0,1-.126-.011,1.959,1.959,0,0,1-.443-.109,2.3,2.3,0,0,1-.282-.123,2.566,2.566,0,0,1-.294-.181,2.63,2.63,0,0,1-.542-.523,3,3,0,0,0-.2-.252.571.571,0,0,0-.211-.129c-.091-.035-.2-.064-.3-.1a1.493,1.493,0,0,1-.155-.066.811.811,0,0,1-.146-.1.535.535,0,0,1-.206-.457.266.266,0,0,1,.055-.127l.033-.033a.259.259,0,0,0,0,.155.465.465,0,0,0,.262.243.941.941,0,0,0,.237.048c.1.012.205.019.332.046a.871.871,0,0,1,.4.191,2.024,2.024,0,0,1,.26.3,4.58,4.58,0,0,0,.437.49c.153.147.306.277.443.386s.261.195.349.254Z" transform="translate(-563.914 -86.226)" fill="#47a01a"/><path d="M589.2,91.066a1.657,1.657,0,0,1-.174-.117,2.717,2.717,0,0,1-.41-.376,3.105,3.105,0,0,1-.454-.652,3.286,3.286,0,0,1-.184-.413c-.056-.147-.091-.3-.137-.4a.39.39,0,0,0-.071-.111l-.02-.019a.076.076,0,0,0-.01-.007s-.014-.011-.023-.018a.452.452,0,0,0-.067-.038c-.1-.048-.242-.084-.39-.146l-.022-.009-.012-.006-.023-.012-.047-.024c-.037-.022-.076-.044-.109-.067a1.283,1.283,0,0,1-.174-.148,1.229,1.229,0,0,1-.231-.333,1.124,1.124,0,0,1-.1-.319.964.964,0,0,1-.01-.251.809.809,0,0,1,.028-.156l.015-.053.011.054a1.292,1.292,0,0,0,.279.586,1.246,1.246,0,0,0,.234.213,1.153,1.153,0,0,0,.143.084l.069.03.048.017.025.009.012,0h0l-.007,0h.007a3.939,3.939,0,0,1,.426.119.97.97,0,0,1,.129.063.772.772,0,0,1,.068.046l.034.027.021.019a.8.8,0,0,1,.179.254,3.67,3.67,0,0,1,.142.446c.04.132.085.262.132.386a6.7,6.7,0,0,0,.3.67c.052.1.1.185.144.263s.084.147.119.2Z" transform="translate(-569.842 -78.281)" fill="#47a01a"/><path d="M589.993,82.568l-.019-.055a1.013,1.013,0,0,0-.063-.145,1.532,1.532,0,0,0-.335-.422,2.976,2.976,0,0,0-.282-.223c-.052-.036-.108-.074-.163-.109l-.181-.113a3.91,3.91,0,0,1-.776-.578,1.861,1.861,0,0,1-.173-.209l-.065-.1-.067-.116a3.444,3.444,0,0,1-.2-.438c-.106-.281-.185-.537-.278-.739-.024-.05-.047-.1-.073-.141a.853.853,0,0,0-.075-.122.9.9,0,0,0-.078-.1.5.5,0,0,0-.076-.079.831.831,0,0,0-.123-.1l-.047-.034.057.01a.648.648,0,0,1,.161.047.575.575,0,0,1,.11.053.7.7,0,0,1,.121.081,1.294,1.294,0,0,1,.245.246,2.571,2.571,0,0,1,.223.334c.07.122.136.25.2.38s.137.259.208.378l.054.084.068.1a1.532,1.532,0,0,0,.131.151,6.524,6.524,0,0,0,.679.564c.058.046.12.1.172.141s.112.1.162.151a2.1,2.1,0,0,1,.259.315,1.252,1.252,0,0,1,.222.566.731.731,0,0,1,0,.168Z" transform="translate(-570.126 -72.036)" fill="#47a01a"/><path d="M594.991,77.907s-.055-.031-.144-.091a1.767,1.767,0,0,1-.156-.116,2.174,2.174,0,0,1-.191-.166,2.975,2.975,0,0,1-.21-.213c-.072-.078-.141-.166-.212-.257s-.139-.19-.2-.295-.123-.211-.183-.32-.108-.222-.151-.336-.084-.226-.12-.336a3.535,3.535,0,0,1-.131-.618,2.059,2.059,0,0,1-.021-.251,1.729,1.729,0,0,1,0-.195c0-.108.01-.171.01-.171s.032.055.078.151.113.232.188.393c.153.322.348.742.557,1.154s.433.817.6,1.13l.207.383C594.966,77.849,594.991,77.907,594.991,77.907Z" transform="translate(-574.709 -69)" fill="#47a01a"/><path d="M596.655,73.045s-.049-.035-.127-.1a3.715,3.715,0,0,1-.3-.3,4.815,4.815,0,0,1-.374-.462A5.647,5.647,0,0,1,595.2,71a4.823,4.823,0,0,1-.186-.564,3.721,3.721,0,0,1-.084-.416c-.014-.1-.018-.162-.018-.162s.04.045.1.128.146.2.243.343c.191.286.42.673.635,1.067s.416.8.554,1.112c.068.158.122.292.158.389S596.655,73.045,596.655,73.045Z" transform="translate(-575.895 -65.614)" fill="#47a01a"/><path d="M602.117,68.437a.436.436,0,0,1-.06.022.356.356,0,0,1-.158.007.477.477,0,0,1-.2-.078.584.584,0,0,1-.164-.175.626.626,0,0,1-.049-.112.512.512,0,0,1-.024-.116.475.475,0,0,1,.028-.211.393.393,0,0,1,.083-.134.3.3,0,0,1,.049-.042s.019.019.043.047l.09.1a1.528,1.528,0,0,1,.177.235,1.588,1.588,0,0,1,.118.269c.018.048.027.09.045.127A.425.425,0,0,1,602.117,68.437Z" transform="translate(-580.625 -63.985)" fill="#47a01a"/><path d="M607.526,71.563a.583.583,0,0,1,.044-.063c.032-.039.063-.085.105-.14.084-.107.184-.225.287-.337s.213-.22.313-.312l.132-.116c.034-.03.06-.048.06-.048a.456.456,0,0,1,.028.072.606.606,0,0,1,.026.194.75.75,0,0,1-.056.263.81.81,0,0,1-.071.134.94.94,0,0,1-.1.124.92.92,0,0,1-.245.184.759.759,0,0,1-.258.077.572.572,0,0,1-.2-.01A.566.566,0,0,1,607.526,71.563Z" transform="translate(-585.004 -66.115)" fill="#47a01a"/><path d="M604.748,87.078a.123.123,0,0,0,0,.041c0,.025.029.044.07.053a.375.375,0,0,0,.155-.008.281.281,0,0,0,.08-.037l.114-.058.531-.262.6-.293c.41-.2.82-.4,1.139-.549.159-.073.295-.134.392-.175s.155-.062.155-.062-.034.051-.1.134a3.3,3.3,0,0,1-.3.322,4.038,4.038,0,0,1-.479.387c-.093.064-.19.128-.293.186s-.209.115-.316.169-.218.1-.328.143-.22.083-.328.115a3.954,3.954,0,0,1-.6.137l-.127.016a.5.5,0,0,1-.143,0,.4.4,0,0,1-.2-.088.125.125,0,0,1-.051-.135A.11.11,0,0,1,604.748,87.078Z" transform="translate(-582.975 -77.079)" fill="#47a01a"/><path d="M606.474,77.214s.036-.033.1-.082.156-.115.265-.193c.218-.152.5-.342.781-.533s.56-.385.781-.533c.112-.072.208-.134.277-.176s.113-.065.113-.065a1.3,1.3,0,0,1-.044.124,1.859,1.859,0,0,1-.156.3,2.36,2.36,0,0,1-.3.375,2.493,2.493,0,0,1-.2.183c-.069.061-.146.114-.221.169s-.156.1-.238.143a2.5,2.5,0,0,1-.243.117,2.373,2.373,0,0,1-.457.138,1.844,1.844,0,0,1-.338.036C606.522,77.219,606.474,77.214,606.474,77.214Z" transform="translate(-584.244 -69.787)" fill="#47a01a"/><path d="M601.5,93.136l.031-.056a1.455,1.455,0,0,1,.1-.154,2.2,2.2,0,0,1,.177-.225l.122-.128c.044-.043.094-.086.145-.131a3.4,3.4,0,0,1,.351-.263c.129-.087.268-.172.416-.251.295-.16.616-.3.93-.447a9.484,9.484,0,0,0,.886-.448c.134-.081.264-.159.379-.243s.22-.17.315-.252.172-.168.241-.245.123-.151.164-.215.074-.114.1-.149l.034-.054-.009.063a1.158,1.158,0,0,1-.039.179,1.726,1.726,0,0,1-.1.271l-.082.159c-.033.053-.069.109-.109.166a2.409,2.409,0,0,1-.291.339,3.238,3.238,0,0,1-.377.322,5.22,5.22,0,0,1-.922.526c-.323.145-.647.271-.944.4-.148.063-.292.12-.424.183s-.256.123-.369.182-.213.12-.3.176-.164.108-.224.154-.11.084-.143.109Z" transform="translate(-580.653 -80.071)" fill="#47a01a"/><path d="M602.922,101.262s.023-.062.07-.165a.865.865,0,0,1,.1-.18l.076-.11c.029-.035.063-.069.1-.106a1.991,1.991,0,0,1,.236-.223,3.242,3.242,0,0,1,.291-.209,5.764,5.764,0,0,1,.671-.354l.67-.291c.1-.048.207-.09.3-.137s.184-.087.262-.134l.116-.064.1-.064a1.637,1.637,0,0,0,.164-.111c.088-.067.145-.1.145-.1s-.024.06-.076.164a.934.934,0,0,1-.111.178l-.077.105c-.03.034-.064.068-.1.1a2.023,2.023,0,0,1-.239.218,3.344,3.344,0,0,1-.293.2c-.1.063-.214.128-.328.184s-.228.112-.343.166l-.667.293c-.1.049-.2.093-.3.141s-.183.09-.258.138c-.039.023-.076.046-.114.066l-.1.065a1.389,1.389,0,0,0-.161.117C602.976,101.224,602.922,101.262,602.922,101.262Z" transform="translate(-581.68 -86.667)" fill="#47a01a"/><path d="M602.128,105.68l.028-.045a.922.922,0,0,1,.087-.122,1.443,1.443,0,0,1,.167-.173l.115-.093c.043-.03.089-.06.137-.09a2.321,2.321,0,0,1,.33-.164,3.2,3.2,0,0,1,.385-.128,7.176,7.176,0,0,1,.841-.16c.141-.019.274-.042.408-.065s.263-.05.385-.082a3.59,3.59,0,0,0,.349-.1,2.6,2.6,0,0,0,.3-.125,2.436,2.436,0,0,0,.238-.142,2.012,2.012,0,0,0,.17-.139,1.338,1.338,0,0,0,.1-.1l.037-.038-.014.051a.839.839,0,0,1-.052.143,1.192,1.192,0,0,1-.119.209l-.093.117c-.036.038-.075.078-.118.117a1.815,1.815,0,0,1-.3.221,2.422,2.422,0,0,1-.373.18,3.3,3.3,0,0,1-.416.13c-.143.036-.293.061-.436.083l-.824.1a5.3,5.3,0,0,0-.69.134c-.1.03-.187.06-.266.091s-.146.063-.2.093-.1.056-.129.073Z" transform="translate(-581.106 -90.205)" fill="#47a01a"/><path d="M596.628,132.768s.034-.1.1-.263a5.048,5.048,0,0,1,.344-.655c.078-.131.17-.268.272-.411s.216-.287.336-.434.253-.293.4-.434.289-.281.438-.419.309-.264.472-.381.323-.231.481-.336.319-.2.474-.278.3-.156.442-.216a5.068,5.068,0,0,1,.694-.256c.173-.05.275-.07.275-.07s-.07.079-.2.2l-.23.22-.3.275-.355.318-.4.348-.421.37-.434.379-.433.381c-.144.125-.282.251-.421.369l-.4.348-.361.311-.311.261-.248.2C596.714,132.709,596.628,132.768,596.628,132.768Z" transform="translate(-577.135 -108.046)" fill="#47a01a"/><path d="M611.545,120.759a.364.364,0,0,0,.105.355,1.379,1.379,0,0,0,.314.231.784.784,0,0,1,.308.3.951.951,0,0,1,.08.428,2.145,2.145,0,0,0,.019.381.475.475,0,0,0,.054.149.343.343,0,0,0,.1.105.5.5,0,0,0,.3.074.689.689,0,0,0,.308-.088,1.241,1.241,0,0,0,.279-.223c.086-.088.168-.188.253-.291a2.112,2.112,0,0,1,.646-.584.985.985,0,0,1,.486-.118l.05,0,.07.009a.983.983,0,0,1,.13.029,1.063,1.063,0,0,1,.228.1,1.347,1.347,0,0,1,.354.316,1.7,1.7,0,0,1,.232.4l-.291-.119a1.618,1.618,0,0,1,1.5.138,1.735,1.735,0,0,1,.155.118c.053.045.094.086.137.129l.232.241a1.15,1.15,0,0,0,.22.18.6.6,0,0,0,.226.079.285.285,0,0,0,.184-.03c.009,0,.027-.021.026-.018l.028-.029a.022.022,0,0,1,.005-.008.3.3,0,0,0,.039-.084.635.635,0,0,0,.015-.25,1.265,1.265,0,0,0-.024-.142l-.039-.16a2.161,2.161,0,0,1-.066-.367.821.821,0,0,1,.072-.43.647.647,0,0,1,.354-.314.531.531,0,0,1,.257-.031.432.432,0,0,1,.255.131l-.309.108.09-.722.014-.11.1-.028a.375.375,0,0,1,.183-.006.405.405,0,0,1,.151.076.579.579,0,0,1,.162.222.68.68,0,0,1,.04.122.728.728,0,0,1,.017.121l.011.205a.618.618,0,0,0,.03.165.281.281,0,0,0,.032.061l.01.013,0,0v0h0l-.011-.009.012.01.039.033a.2.2,0,0,0,.111.027.35.35,0,0,0,.151-.049.663.663,0,0,0,.247-.258.6.6,0,0,0,.062-.174,1.921,1.921,0,0,0,.03-.2c.016-.134.021-.273.048-.41a.926.926,0,0,1,.151-.384.9.9,0,0,0-.095.391c-.005.135,0,.27,0,.409,0,.068,0,.141-.008.212a.691.691,0,0,1-.053.218.835.835,0,0,1-.282.355.548.548,0,0,1-.229.1.393.393,0,0,1-.281-.056l-.041-.031-.01-.008-.012-.011,0,0-.006-.006-.024-.025a.529.529,0,0,1-.073-.114.851.851,0,0,1-.063-.233l-.026-.2a.432.432,0,0,0-.017-.081.421.421,0,0,0-.029-.07.28.28,0,0,0-.084-.1c-.031-.017-.036-.013-.051-.009l.112-.138-.051.726-.023.327-.286-.219a.063.063,0,0,0-.042-.015.169.169,0,0,0-.073.017.3.3,0,0,0-.136.128.439.439,0,0,0-.025.229,1.767,1.767,0,0,0,.065.294l.046.166a1.7,1.7,0,0,1,.038.19,1.063,1.063,0,0,1-.017.42.694.694,0,0,1-.1.221c-.015.02-.031.04-.047.059l-.03.032a.612.612,0,0,1-.108.085.726.726,0,0,1-.466.1,1.042,1.042,0,0,1-.409-.137,1.621,1.621,0,0,1-.305-.241l-.238-.243c-.036-.036-.076-.074-.109-.1a1.288,1.288,0,0,0-.112-.088,1.172,1.172,0,0,0-1.078-.111l-.205.086-.085-.205a1.151,1.151,0,0,0-.4-.521.64.64,0,0,0-.133-.067.6.6,0,0,0-.065-.018l-.029-.006-.05,0a.6.6,0,0,0-.286.064,1.308,1.308,0,0,0-.285.2,3.317,3.317,0,0,0-.267.27c-.09.1-.183.2-.289.3a1.593,1.593,0,0,1-.36.257.96.96,0,0,1-.463.1.769.769,0,0,1-.453-.156.569.569,0,0,1-.093-.093.549.549,0,0,1-.066-.1.688.688,0,0,1-.065-.231,2.261,2.261,0,0,1,.017-.42.8.8,0,0,0-.027-.358.674.674,0,0,0-.233-.278,1.326,1.326,0,0,1-.3-.282A.391.391,0,0,1,611.545,120.759Z" transform="translate(-587.885 -101.965)" fill="#47a01a"/><path d="M647.229,113.115l.018-.024a.527.527,0,0,1,.06-.065.628.628,0,0,1,.307-.152.677.677,0,0,1,.255,0,.633.633,0,0,1,.278.13,2.069,2.069,0,0,1,.238.236,1.3,1.3,0,0,0,.229.219.238.238,0,0,0,.115.043.18.18,0,0,0,.048,0l.048-.009a.1.1,0,0,1,.016-.009.5.5,0,0,0,.185-.225c.059-.113.111-.247.2-.393l.016-.028.023-.032.032-.045a1.137,1.137,0,0,1,.1-.109,1.049,1.049,0,0,1,.23-.158,1.162,1.162,0,0,1,.545-.125,1.023,1.023,0,0,1,.563.175l.063.046.052.045a1.341,1.341,0,0,1,.105.109,1.879,1.879,0,0,1,.161.223c.093.148.166.292.247.411a.683.683,0,0,0,.262.258.381.381,0,0,0,.284.053.141.141,0,0,0,.08-.066.251.251,0,0,0,.016-.022v-.006c0-.011.007-.008.011-.024a.507.507,0,0,0,.025-.081c.029-.12.03-.273.051-.441a.931.931,0,0,1,.074-.278.566.566,0,0,1,.1-.146.494.494,0,0,1,.152-.1.523.523,0,0,1,.319-.03,1.687,1.687,0,0,1,.225.066.719.719,0,0,0,.158.04c.018,0,.047,0,.048,0l.041-.01s.006,0,.014-.008a.331.331,0,0,0,.144-.214,2.342,2.342,0,0,0-.007-.626.849.849,0,0,1,.04-.3.492.492,0,0,1,.153-.212.37.37,0,0,1,.331-.091.251.251,0,0,1,.1.061.247.247,0,0,0-.107-.037.331.331,0,0,0-.263.132.378.378,0,0,0-.089.185.8.8,0,0,0,.007.248c.016.092.043.191.068.3a1.008,1.008,0,0,1,.022.39.612.612,0,0,1-.236.42.4.4,0,0,1-.071.04.493.493,0,0,1-.054.022.521.521,0,0,1-.152.023,1,1,0,0,1-.246-.036,1.422,1.422,0,0,0-.186-.039.147.147,0,0,0-.105.018c-.028.015-.035.026-.051.065a.566.566,0,0,0-.03.16,4.79,4.79,0,0,1-.034.481.9.9,0,0,1-.037.147.592.592,0,0,1-.037.087l-.023.044c-.007.013-.012.018-.018.027a.584.584,0,0,1-.285.227.809.809,0,0,1-.646-.071,1.146,1.146,0,0,1-.434-.4,2.527,2.527,0,0,0-.5-.723.665.665,0,0,0-.328-.113.752.752,0,0,0-.353.062.659.659,0,0,0-.147.09c-.022.018-.033.029-.055.049l-.036.043-.009.011,0,.005,0,0c-.007.009.006-.009,0-.007l-.013.019c-.073.1-.137.231-.217.36a.754.754,0,0,1-.375.342c-.026.007-.054.014-.078.019l-.049,0a.4.4,0,0,1-.076,0,.3.3,0,0,1-.066-.011.514.514,0,0,1-.22-.112,1.377,1.377,0,0,1-.245-.292,2.046,2.046,0,0,0-.177-.238.543.543,0,0,0-.412-.174.629.629,0,0,0-.3.082.5.5,0,0,0-.07.05Z" transform="translate(-613.674 -95.417)" fill="#47a01a"/><path d="M668.492,91.643a.856.856,0,0,0,.55.124.762.762,0,0,0,.476-.231.8.8,0,0,0,.207-.467.691.691,0,0,0-.022-.249,2.317,2.317,0,0,1-.069-.3.547.547,0,0,1,.012-.2.377.377,0,0,1,.141-.2.522.522,0,0,1,.194-.083l.07-.017.064-.018a1.091,1.091,0,0,0,.429-.255.644.644,0,0,0,.211-.385.252.252,0,0,0,0-.085l-.015-.072a.172.172,0,0,1-.016-.031.643.643,0,0,0-.127-.173c-.115-.118-.273-.23-.432-.367a1.912,1.912,0,0,1-.236-.238,1,1,0,0,1-.178-.336l0-.012,0-.006v0c0-.008,0,.014,0-.019l0-.018-.007-.036-.007-.036,0-.055a.978.978,0,0,1,.008-.206,1.285,1.285,0,0,1,.112-.34c.1-.2.214-.365.309-.525a2.114,2.114,0,0,0,.12-.233l.021-.057.005-.014,0-.007s-.007.027,0,.013v-.007l.009-.036.017-.071,0-.048a.9.9,0,0,0-.011-.221.988.988,0,0,0-.39-.592.834.834,0,0,0-.44-.153l-.172-.006-.014-.163a.471.471,0,0,0-.029-.141.445.445,0,0,0-.076-.13.681.681,0,0,0-.119-.113,1.133,1.133,0,0,0-.15-.093,1.4,1.4,0,0,0-.351-.121,1.573,1.573,0,0,0-.188-.028c-.06-.006-.131-.007-.2-.008a6.194,6.194,0,0,1-.829-.038,1.4,1.4,0,0,1-.4-.128.73.73,0,0,1-.091-.054.238.238,0,0,1-.082-.074.217.217,0,0,1-.035-.1.085.085,0,0,1,.013-.053.05.05,0,0,1,.048-.018.049.049,0,0,0-.043.069.194.194,0,0,0,.045.084.2.2,0,0,0,.08.048.661.661,0,0,0,.093.035,1.3,1.3,0,0,0,.389.064,7.079,7.079,0,0,0,.81-.063c.07-.006.137-.011.213-.011a1.884,1.884,0,0,1,.22.011,1.715,1.715,0,0,1,.435.106,1.256,1.256,0,0,1,.208.107,1.016,1.016,0,0,1,.188.156.794.794,0,0,1,.146.213.832.832,0,0,1,.071.254l-.186-.168a1.145,1.145,0,0,1,.67.186,1.383,1.383,0,0,1,.464.5,1.194,1.194,0,0,1,.154.691c0,.033-.007.069-.011.1l-.016.072-.008.036-.006.024,0,.01-.007.021-.029.082a2.465,2.465,0,0,1-.145.292c-.1.179-.212.34-.284.494a1.022,1.022,0,0,0-.074.218.612.612,0,0,0-.006.088.42.42,0,0,0,.015.1.552.552,0,0,0,.1.182,1.493,1.493,0,0,0,.177.181,5.041,5.041,0,0,1,.456.408,1.032,1.032,0,0,1,.2.313c.013.035.025.071.035.107l.013.073a.651.651,0,0,1,0,.208,1.008,1.008,0,0,1-.358.618,1.445,1.445,0,0,1-.6.3l-.08.017-.074.012a.235.235,0,0,0-.079.022.065.065,0,0,0-.028.032.232.232,0,0,0-.013.09,2.165,2.165,0,0,0,.038.274.958.958,0,0,1,0,.337.968.968,0,0,1-.327.56.862.862,0,0,1-.281.158.928.928,0,0,1-.312.042A.859.859,0,0,1,668.492,91.643Z" transform="translate(-627.761 -75.902)" fill="#47a01a"/><path d="M626.709,76.73a1.269,1.269,0,0,1-.141-.485.679.679,0,0,1,.01-.138l0-.018v0l0-.008,0-.007.008-.031a.624.624,0,0,1,.03-.074.548.548,0,0,1,.2-.227.449.449,0,0,1,.339-.066.583.583,0,0,1,.283.18c.066.071.116.14.163.2s.092.094.1.089,0,0,0,0l0,0h0l-.015,0h.006l.028-.007a.021.021,0,0,0-.014,0l0-.005a.482.482,0,0,0,.068-.124c.03-.066.051-.139.1-.24a.515.515,0,0,1,.034-.059l.054-.075a.991.991,0,0,1,.112-.115.938.938,0,0,1,.264-.165,1.027,1.027,0,0,1,.3-.077.931.931,0,0,1,.607.141l-.292.309-.051-.087-.038-.092a.825.825,0,0,1-.038-.19.963.963,0,0,1,.008-.186.939.939,0,0,1,.046-.176,1.05,1.05,0,0,1,.082-.161.932.932,0,0,1,.114-.141.861.861,0,0,1,.144-.112c.027-.014.055-.029.082-.042l.1-.032.071-.011.1-.006a.813.813,0,0,1,.172.026.732.732,0,0,1,.155.065.937.937,0,0,1,.133.095.83.83,0,0,1,.108.118.817.817,0,0,1,.077.136.615.615,0,0,1,.041.148l0,.075-.007.073a.672.672,0,0,0-.047-.133.783.783,0,0,0-.075-.113.711.711,0,0,0-.095-.091.837.837,0,0,0-.107-.069.746.746,0,0,0-.116-.045.95.95,0,0,0-.117-.02.568.568,0,0,0-.112.006.351.351,0,0,1-.043.011l-.067.024.01,0h0l0,0-.006,0-.011.006-.022.013c-.013.011-.027.02-.041.03a.522.522,0,0,0-.07.074.6.6,0,0,0-.053.09.636.636,0,0,0-.033.1.825.825,0,0,0-.014.1.572.572,0,0,0,.007.1.553.553,0,0,0,.026.088c.007.013.014.026.02.038l.024.034.427.676-.718-.368a.562.562,0,0,0-.153-.054.621.621,0,0,0-.172,0,.609.609,0,0,0-.315.136.514.514,0,0,0-.059.057.471.471,0,0,0-.047.068c-.026.04-.058.121-.1.2a.741.741,0,0,1-.2.273.46.46,0,0,1-.1.058.572.572,0,0,1-.07.022l-.032.005-.024,0h-.043a.337.337,0,0,1-.058,0,.415.415,0,0,1-.112-.034.6.6,0,0,1-.248-.238c-.048-.076-.084-.143-.122-.2a.608.608,0,0,0-.052-.064.057.057,0,0,0-.026-.022l-.013-.008-.006,0,0,0h0l.011.005h0l-.011-.006a.153.153,0,0,0-.129,0,.363.363,0,0,0-.144.106l-.027.034-.014.026,0,.007s0,.007,0,0v0l-.005.012a.51.51,0,0,0-.033.1A1.679,1.679,0,0,0,626.709,76.73Z" transform="translate(-598.754 -68.959)" fill="#47a01a"/><path d="M644.212,74.494a.78.78,0,0,1,.22-.6.814.814,0,0,1,.292-.2.764.764,0,0,1,.17-.045.869.869,0,0,1,.18-.007.9.9,0,0,1,.648.328,1.589,1.589,0,0,1,.18.3,2.843,2.843,0,0,0,.136.253l.015.022c.007.009.017.024.021.028l.033.034a.4.4,0,0,0,.084.061.157.157,0,0,0,.129.023.078.078,0,0,0,.019-.011c.017-.01.006-.006.006-.006l.016-.013a.829.829,0,0,0,.076-.093,1.139,1.139,0,0,1,.124-.146c.013-.013.029-.026.045-.039l.026-.019.013-.009.024-.014.037-.02a.765.765,0,0,1,.076-.03.626.626,0,0,1,.473.054.715.715,0,0,1,.179.131.735.735,0,0,1,.074.086c.012.018.02.028.035.052l.02.035a1.1,1.1,0,0,1,.12.375,2.89,2.89,0,0,1,.023.336l-.3-.2a2.973,2.973,0,0,1,.394-.121,1.242,1.242,0,0,1,.458-.023l.056.011.068.018a.791.791,0,0,1,.318.2.683.683,0,0,1,.147.214.622.622,0,0,1,.038.131.592.592,0,0,1,.005.138l-.194-.168a.788.788,0,0,1,.514.1.816.816,0,0,1,.2.159.785.785,0,0,1,.077.1.858.858,0,0,1,.059.118l.017.052.017.064a.875.875,0,0,1,.014.122.719.719,0,0,1-.034.236.653.653,0,0,1-.264.36.671.671,0,0,0,.158-.382.679.679,0,0,0-.014-.2.645.645,0,0,0-.028-.091l-.018-.039-.026-.048c-.013-.018-.034-.047-.054-.068a.863.863,0,0,0-.066-.061.57.57,0,0,0-.155-.089.534.534,0,0,0-.332-.019l-.188.051-.006-.219a.27.27,0,0,0-.114-.2.453.453,0,0,0-.118-.067c-.021-.008-.043-.015-.064-.02l-.026-.006-.039-.005a1.455,1.455,0,0,0-.643.162l-.282.116-.018-.313a2.529,2.529,0,0,0-.028-.284.727.727,0,0,0-.067-.216l-.019-.032-.009-.013a.274.274,0,0,0-.028-.032.362.362,0,0,0-.071-.053.184.184,0,0,0-.129-.027l0,0-.032.016,0,0,.012-.007h0l0,0-.006,0-.014.012a.718.718,0,0,0-.078.09,1.209,1.209,0,0,1-.125.144c-.014.013-.029.026-.046.039a.571.571,0,0,1-.055.037.5.5,0,0,1-.122.051.584.584,0,0,1-.465-.086.8.8,0,0,1-.159-.133.9.9,0,0,1-.068-.083c-.012-.017-.016-.023-.024-.036l-.015-.024-.012-.02a2.039,2.039,0,0,1-.134-.308,1.267,1.267,0,0,0-.116-.249.626.626,0,0,0-.17-.17.652.652,0,0,0-.236-.1.621.621,0,0,0-.13-.014.607.607,0,0,0-.135.012.647.647,0,0,0-.247.109A.774.774,0,0,0,644.212,74.494Z" transform="translate(-611.493 -68.352)" fill="#47a01a"/><path d="M619.313,99.609l.141-.08a1.782,1.782,0,0,0,.164-.1c.063-.04.134-.089.211-.146a5.064,5.064,0,0,0,.525-.45c.192-.185.395-.409.618-.655s.457-.525.732-.808c.138-.141.282-.284.445-.424.144-.131.326-.271.5-.4a9.077,9.077,0,0,1,1.138-.7c.4-.211.815-.4,1.229-.577s.829-.343,1.233-.506l.594-.246c.2-.086.385-.17.57-.254a10.569,10.569,0,0,0,1.912-1.122,7.389,7.389,0,0,0,.666-.586c.091-.1.174-.189.251-.275s.143-.171.2-.248.105-.149.151-.211.075-.118.1-.162l.087-.137-.047.155c-.017.05-.034.114-.061.186s-.062.154-.1.246-.094.188-.149.3-.13.216-.206.334a5.3,5.3,0,0,1-.6.73,7.091,7.091,0,0,1-.846.731,9.318,9.318,0,0,1-1.05.666c-.188.105-.388.207-.579.3s-.4.19-.6.279c-.4.182-.818.352-1.225.527s-.809.349-1.195.534a11.626,11.626,0,0,0-1.093.6c-.17.107-.321.209-.49.333-.154.108-.3.233-.446.351l-.818.7a7.745,7.745,0,0,1-.74.569,3.871,3.871,0,0,1-.631.354,2.067,2.067,0,0,1-.249.1,1.738,1.738,0,0,1-.187.058Z" transform="translate(-593.516 -81.26)" fill="#47a01a"/><path d="M645.16,91.138l-.039-.055a.637.637,0,0,1-.085-.176.866.866,0,0,1-.042-.31,1.227,1.227,0,0,1,.09-.4,1.685,1.685,0,0,1,.238-.418,2.1,2.1,0,0,1,.375-.384c.138-.112.291-.218.437-.319s.292-.2.423-.309a1.957,1.957,0,0,0,.339-.343c.045-.063.081-.121.133-.21a.7.7,0,0,1,.254-.264.619.619,0,0,1,.346-.069c.1.007.181.024.254.036a.831.831,0,0,0,.37-.017.983.983,0,0,0,.5-.336,1.052,1.052,0,0,0,.1-.154l.029-.06,0,.067a.814.814,0,0,1-.043.19.908.908,0,0,1-.153.271.976.976,0,0,1-.322.265,1.05,1.05,0,0,1-.232.09,1.012,1.012,0,0,1-.132.021l-.029,0a.18.18,0,0,1-.023,0h-.082c-.169-.005-.32-.006-.37.044a.407.407,0,0,0-.086.125l-.06.118c-.026.045-.052.09-.081.133a2.086,2.086,0,0,1-.415.445,4.767,4.767,0,0,1-.469.325c-.156.1-.3.184-.441.275a2.331,2.331,0,0,0-.357.281,2.026,2.026,0,0,0-.261.313,1.362,1.362,0,0,0-.152.309.947.947,0,0,0-.041.266.738.738,0,0,0,.02.18Z" transform="translate(-612.06 -78.249)" fill="#47a01a"/><path d="M652.057,84.869a.563.563,0,0,1-.063-.043.263.263,0,0,1-.061-.061.517.517,0,0,1-.063-.1.572.572,0,0,1-.049-.123.712.712,0,0,1-.024-.146.722.722,0,0,1,.009-.157.876.876,0,0,1,.041-.158.855.855,0,0,1,.075-.145.708.708,0,0,1,.1-.123.657.657,0,0,1,.234-.151.441.441,0,0,1,.109-.027.319.319,0,0,1,.087-.005.394.394,0,0,1,.077.01s-.011.029-.031.069-.045.1-.068.155c-.051.118-.1.251-.152.381l-.037.1c-.014.033-.024.065-.038.1s-.025.065-.035.1-.024.063-.033.093l-.031.085a.619.619,0,0,0-.022.076A.586.586,0,0,1,652.057,84.869Z" transform="translate(-616.973 -75.565)" fill="#47a01a"/><path d="M654,100.394a1.9,1.9,0,0,0,.368.216,1.752,1.752,0,0,0,.4.118,1.721,1.721,0,0,0,.4.026,1.794,1.794,0,0,0,.389-.061,1.58,1.58,0,0,0,.354-.148,1.466,1.466,0,0,0,.3-.229c.092-.092.18-.2.275-.3s.2-.227.3-.33a3.314,3.314,0,0,1,.343-.306,3.737,3.737,0,0,1,.374-.261,4.026,4.026,0,0,1,.825-.38c.07-.023.149-.045.217-.062s.154-.034.228-.047a2.06,2.06,0,0,1,.463-.028,1.547,1.547,0,0,1,.459.09,1.124,1.124,0,0,1,.395.243l.132.131-.17-.026a.366.366,0,0,1-.307-.3.328.328,0,0,0,.313.182l-.038.1a1.276,1.276,0,0,0-.777-.14,2.543,2.543,0,0,0-.395.078c-.066.019-.128.04-.19.063l-.193.077a4.339,4.339,0,0,0-.722.39q-.17.114-.33.242c-.1.085-.21.178-.3.268s-.19.194-.29.3a3.35,3.35,0,0,1-.322.322,1.872,1.872,0,0,1-.407.266,1.733,1.733,0,0,1-.461.136,1.681,1.681,0,0,1-.47.01,1.708,1.708,0,0,1-.45-.108,1.609,1.609,0,0,1-.4-.22A1.415,1.415,0,0,1,654,100.394Z" transform="translate(-618.562 -86.37)" fill="#47a01a"/><path d="M654.168,107.493s.049.03.128.088c.038.031.089.063.141.1s.113.077.18.12.137.089.213.135.158.091.239.14.17.093.26.135.181.085.273.128.186.079.279.112.186.066.276.1.18.058.265.079.167.047.244.064c.153.04.286.067.38.086s.151.034.151.034-.051.024-.145.057a1.051,1.051,0,0,1-.172.048,1.466,1.466,0,0,1-.229.04,1.943,1.943,0,0,1-.276.013,2.539,2.539,0,0,1-.309-.025,2.509,2.509,0,0,1-.324-.072,2.4,2.4,0,0,1-.627-.273,2.51,2.51,0,0,1-.273-.188,2.591,2.591,0,0,1-.228-.209,1.948,1.948,0,0,1-.179-.211,1.551,1.551,0,0,1-.128-.2,1.008,1.008,0,0,1-.081-.158C654.186,107.547,654.168,107.493,654.168,107.493Z" transform="translate(-618.685 -92.794)" fill="#47a01a"/><path d="M635.923,88.7l-.016-.079c-.009-.051-.024-.128-.034-.225a2.7,2.7,0,0,1,.018-.824,1.687,1.687,0,0,1,.2-.544,1.558,1.558,0,0,1,.2-.268l.053-.055.066-.06c.042-.036.086-.071.129-.1.175-.131.349-.247.485-.371a.79.79,0,0,0,.165-.2.769.769,0,0,0,.056-.114,1.258,1.258,0,0,0,.039-.129,2.97,2.97,0,0,0,.068-.6,3.814,3.814,0,0,1,.073-.665,1.532,1.532,0,0,1,.11-.329c.02-.04.053-.1.08-.143s.058-.088.086-.128c.115-.162.228-.292.309-.42a1.284,1.284,0,0,0,.159-.38,1.389,1.389,0,0,0,.035-.329,1.433,1.433,0,0,0-.021-.22l-.016-.078s.016.023.04.07a1.1,1.1,0,0,1,.086.214,1.229,1.229,0,0,1,.049.363,1.271,1.271,0,0,1-.1.479,4.422,4.422,0,0,1-.254.484c-.022.04-.042.079-.06.119s-.03.07-.049.122a1.594,1.594,0,0,0-.059.253,4.617,4.617,0,0,0-.025.6,2.887,2.887,0,0,1-.069.7,1.3,1.3,0,0,1-.407.661,4.443,4.443,0,0,1-.548.371c-.041.027-.08.053-.116.08l-.05.038-.057.047a1.2,1.2,0,0,0-.17.181,1.761,1.761,0,0,0-.232.426,3.794,3.794,0,0,0-.18.755Z" transform="translate(-605.458 -74.692)" fill="#47a01a"/><path d="M626.409,93.574l-.035-.089a1.954,1.954,0,0,1-.083-.261,2.4,2.4,0,0,1-.068-.425,2.544,2.544,0,0,1,.017-.564,2.7,2.7,0,0,1,.171-.654,2.88,2.88,0,0,1,.373-.66,5.241,5.241,0,0,0,.41-.606,1.449,1.449,0,0,0,.071-.158c.018-.047.037-.107.052-.163a3.386,3.386,0,0,0,.073-.366c.023-.128.041-.258.07-.4l.04-.194.05-.2a5.689,5.689,0,0,1,.26-.75,5.423,5.423,0,0,1,.708-1.2,4.819,4.819,0,0,1,.671-.712c.087-.079.163-.133.212-.171l.076-.058s-.084.1-.221.292a8.061,8.061,0,0,0-.52.8c-.1.168-.191.358-.289.558s-.178.419-.262.645-.144.468-.206.71l-.041.181-.036.194c-.023.119-.039.253-.06.387a3.97,3.97,0,0,1-.091.412,2.169,2.169,0,0,1-.073.212,1.831,1.831,0,0,1-.095.2,4.281,4.281,0,0,1-.48.641,3.225,3.225,0,0,0-.381.556,3.048,3.048,0,0,0-.324,1.08,3.244,3.244,0,0,0-.016.41c0,.114.008.205.017.268Z" transform="translate(-598.5 -77.229)" fill="#47a01a"/><path d="M632.562,114.886s.053.011.14.034l.154.034c.058.013.125.023.2.035a3.348,3.348,0,0,0,1,.014c.088-.011.176-.031.261-.049l.272-.069a2.108,2.108,0,0,1,.538-.077.82.82,0,0,1,.391.1.53.53,0,0,1,.119.089H635.6a.694.694,0,0,0-.1,0,1.073,1.073,0,0,0-.328.078c-.129.049-.276.122-.447.2-.043.02-.088.038-.133.057s-.1.039-.144.053a1.835,1.835,0,0,1-.965.056,1.717,1.717,0,0,1-.517-.2,1.487,1.487,0,0,1-.3-.239,1,1,0,0,1-.07-.081Z" transform="translate(-603.083 -98.075)" fill="#47a01a"/><path d="M625.747,119.553a1.173,1.173,0,0,1,.092.078c.028.025.065.049.1.08s.082.062.13.094a2.647,2.647,0,0,0,.323.2c.06.031.122.06.186.088a2.085,2.085,0,0,0,.2.073,1.906,1.906,0,0,0,.2.057,1.988,1.988,0,0,0,.2.038c.068.011.124.015.2.021a1.3,1.3,0,0,1,.217.031.649.649,0,0,1,.186.073.308.308,0,0,1,.116.113.2.2,0,0,1,.024.1.266.266,0,0,1,0,.032.2.2,0,0,0-.086-.064.46.46,0,0,0-.246.015c-.053.013-.112.029-.174.047a1.228,1.228,0,0,1-.239.043.83.83,0,0,1-.132,0,.851.851,0,0,1-.135-.01,1.366,1.366,0,0,1-.269-.06,1.409,1.409,0,0,1-.251-.111,1.314,1.314,0,0,1-.217-.151,1.4,1.4,0,0,1-.172-.175,1.228,1.228,0,0,1-.121-.182,1.11,1.11,0,0,1-.074-.168,1,1,0,0,1-.036-.137C625.748,119.6,625.747,119.553,625.747,119.553Z" transform="translate(-598.162 -101.503)" fill="#47a01a"/><path d="M557.369,126.964l-.117-.126c-.076-.081-.184-.208-.332-.35-.074-.072-.151-.154-.243-.236s-.191-.173-.3-.268l-.351-.286-.4-.3c-.287-.2-.6-.4-.945-.6s-.719-.388-1.108-.577-.807-.358-1.231-.528-.867-.323-1.3-.468c-.453-.151-.892-.287-1.337-.426l-1.3-.4c-.424-.133-.833-.271-1.22-.407s-.751-.273-1.083-.406c-.166-.069-.325-.133-.475-.2l-.422-.194c-.264-.125-.489-.243-.672-.345s-.323-.188-.42-.244l-.146-.09.625.194c.2.063.441.129.716.211l.932.251,1.108.276,1.241.3c.431.107.877.22,1.329.345s.917.266,1.364.411.91.323,1.349.51.861.391,1.259.612a10.806,10.806,0,0,1,1.109.7,8.8,8.8,0,0,1,.912.742c.131.127.256.248.371.367l.31.353c.091.116.177.223.253.325s.138.2.2.29a4.444,4.444,0,0,1,.248.417Z" transform="translate(-539.105 -102.191)" fill="#47a01a"/><path d="M572.628,137.667a1.327,1.327,0,0,1,.233.461.99.99,0,0,1,.028.135.777.777,0,0,1,0,.145.7.7,0,0,1-.031.154.555.555,0,0,1-.081.151.522.522,0,0,1-.131.116l-.018.012-.025.013-.028.014a.6.6,0,0,1-.092.032.687.687,0,0,1-.339-.013,1.516,1.516,0,0,1-.5-.278l.344-.084c-.077.2-.157.408-.242.609l-.048.114-.117.023a1.984,1.984,0,0,1-.34.04,1.506,1.506,0,0,1-.355-.028.955.955,0,0,1-.184-.054.746.746,0,0,1-.18-.1.607.607,0,0,1-.15-.166,1.061,1.061,0,0,1-.048-.1c-.01-.036-.019-.068-.028-.108a.875.875,0,0,1,0-.183,1.225,1.225,0,0,0,0-.123.2.2,0,0,0-.011-.049.022.022,0,0,1,0-.011l-.011-.018a.218.218,0,0,0-.075-.069.385.385,0,0,0-.244-.051.3.3,0,0,0-.129.042.292.292,0,0,0-.1.1.294.294,0,0,1,.059-.153.379.379,0,0,1,.136-.109.493.493,0,0,1,.173-.05.557.557,0,0,1,.187.014.416.416,0,0,1,.182.094.515.515,0,0,1,.041.039c.013.017.026.035.038.054a.443.443,0,0,1,.046.093.878.878,0,0,1,.037.183.554.554,0,0,0,.025.123.245.245,0,0,1,.019.038l.024.033a.3.3,0,0,0,.066.051.354.354,0,0,0,.093.036.576.576,0,0,0,.114.023,1.731,1.731,0,0,0,.529-.037l-.164.136c.082-.2.169-.4.258-.6l.126-.283.218.2a1.4,1.4,0,0,0,.34.244.354.354,0,0,0,.149.035c.01,0,.008,0,.027,0l.03-.009.007,0h0l-.01,0h0l.008,0a.268.268,0,0,0,.064-.034.254.254,0,0,0,.053-.056.428.428,0,0,0,.039-.083.846.846,0,0,0,.033-.215A2.194,2.194,0,0,0,572.628,137.667Z" transform="translate(-557.709 -114.583)" fill="#47a01a"/><path d="M557.886,136.766a1.975,1.975,0,0,1-.151.5.9.9,0,0,1-.159.23.765.765,0,0,1-.111.1.112.112,0,0,1-.021.014l-.014.008-.028.017a.853.853,0,0,1-.081.033.678.678,0,0,1-.315.02.6.6,0,0,1-.3-.14.473.473,0,0,1-.156-.351c0-.066.01-.111.01-.139s0-.021,0-.022h0v0h0l.007.018v0l0-.007-.008-.014c-.008-.018,0,0,0,.007l.012.016.006,0s.005,0,0,0a.362.362,0,0,0-.058,0c-.064.008-.144.03-.241.046a.64.64,0,0,1-.366-.029.67.67,0,0,1-.287-.233.827.827,0,0,1-.14-.319.773.773,0,0,1-.013-.09l0-.032v-.045a1.061,1.061,0,0,1,.011-.162,2.108,2.108,0,0,1,.17-.54l.241.312a1.3,1.3,0,0,0-.335.109,2.627,2.627,0,0,1-.424.157c-.02,0-.04.01-.062.013l-.032.006-.016,0-.017,0h-.01c-.019,0-.031,0-.056,0l-.085,0a.792.792,0,0,1-.266-.079.755.755,0,0,1-.221-.169.506.506,0,0,1-.131-.286.438.438,0,0,1,.021-.172c.012-.028.019-.046.036-.08l.014-.022.023-.032c.055-.068.107-.114.137-.153.015-.018.023-.032.025-.033s.008,0,.005-.007-.051-.042-.117-.062c-.265-.089-.531-.181-.792-.287.282.019.56.051.838.086a.392.392,0,0,1,.258.105.263.263,0,0,1,.068.187.366.366,0,0,1-.05.16c-.045.079-.091.134-.115.18l-.018.035s0,.012,0,.017a.116.116,0,0,0,0,.035.286.286,0,0,0,.179.148.426.426,0,0,0,.136.029.067.067,0,0,1,.02,0l.048-.006h.011l-.013,0h0l.01,0,.019-.005c.013,0,.026-.008.04-.012a2.78,2.78,0,0,0,.349-.158,1.605,1.605,0,0,1,.455-.157l.4-.059-.154.372a2.073,2.073,0,0,0-.14.431.641.641,0,0,0-.009.093v.018l0,.032c0,.009,0,.024,0,.036a.38.38,0,0,0,.06.147.286.286,0,0,0,.1.091.2.2,0,0,0,.136.015c.073-.006.158-.024.264-.031a.568.568,0,0,1,.2.018.329.329,0,0,1,.123.063.293.293,0,0,1,.057.06.563.563,0,0,1,.036.058l.02.057a.355.355,0,0,1,.012.065.443.443,0,0,1,0,.105c-.009.057-.021.1-.023.114a.133.133,0,0,0,.032.108.39.39,0,0,0,.335.115c.014,0,.024,0,.041-.007l.051-.018a.539.539,0,0,0,.1-.054.82.82,0,0,0,.168-.16A2.857,2.857,0,0,0,557.886,136.766Z" transform="translate(-546.053 -112.573)" fill="#47a01a"/><path d="M539.016,131.749a1.529,1.529,0,0,1-.335.337.8.8,0,0,1-.475.162c-.036,0-.043,0-.066-.005a.5.5,0,0,1-.071-.016.588.588,0,0,1-.131-.056.635.635,0,0,1-.206-.188.573.573,0,0,1-.106-.278.471.471,0,0,1,.016-.166.778.778,0,0,1,.032-.08c.014-.024.031-.049.047-.072l.212.208c-.178.18-.361.353-.542.53l-.147.145-.129-.181a1.415,1.415,0,0,1-.228-1.053l.306.229a1.131,1.131,0,0,0-.428.443,1.106,1.106,0,0,0-.108.292,1.082,1.082,0,0,0-.02.307,1.4,1.4,0,0,1,.005.223.573.573,0,0,1-.033.151l0,.01-.009.02-.005.011-.011.023a.533.533,0,0,1-.055.083.568.568,0,0,1-.253.172.813.813,0,0,1-.257.043.934.934,0,0,1-.242-.031c-.07-.018-.138-.04-.2-.061a1.165,1.165,0,0,0-.3-.082.667.667,0,0,0-.149.011.817.817,0,0,1-.249.005l-.019,0-.01,0-.019,0-.022-.007-.034-.012-.042-.019a.539.539,0,0,1-.122-.087.632.632,0,0,1-.145-.221.954.954,0,0,1-.054-.451c.012-.134.031-.253.031-.358a.525.525,0,0,0,0-.071.49.49,0,0,0-.016-.084.5.5,0,0,0-.056-.131.727.727,0,0,0-.222-.228.7.7,0,0,0-.647-.081l-.068.028v-.064c0-.145.008-.29.011-.435.027.143.057.285.08.428l-.068-.037a.724.724,0,0,1,.389-.116.936.936,0,0,1,.405.089.9.9,0,0,1,.335.267.841.841,0,0,1,.146.3.782.782,0,0,1,.021.116,3.477,3.477,0,0,1,0,.393.593.593,0,0,0,.054.286c.042.078.091.113.131.114s.169-.037.349-.04a1.509,1.509,0,0,1,.429.085c.061.018.112.035.164.048a.486.486,0,0,0,.13.014.229.229,0,0,0,.167-.056s0,0,0,.006l.009-.019.005-.011v0h0l-.006.013h0a.129.129,0,0,0,.005-.032,1.168,1.168,0,0,0-.009-.152,1.449,1.449,0,0,1,.034-.44,1.564,1.564,0,0,1,.158-.409,1.459,1.459,0,0,1,.623-.6l.409-.2-.1.429a1.081,1.081,0,0,0,.12.771l-.276-.037c.2-.16.389-.322.588-.479l.886-.7-.674.909a.216.216,0,0,1-.021.023c0,.009-.01.017-.015.026a.19.19,0,0,0-.015.064.317.317,0,0,0,.041.159.484.484,0,0,0,.117.142.42.42,0,0,0,.077.049.2.2,0,0,0,.041.016c.015,0,.046.012.049.012a.72.72,0,0,0,.413-.07A1.751,1.751,0,0,0,539.016,131.749Z" transform="translate(-531.496 -109.517)" fill="#47a01a"/><path d="M527.811,114.22a.521.521,0,0,1-.125.021.579.579,0,0,1-.129-.012.622.622,0,0,1-.237-.113.825.825,0,0,1-.185-.193.979.979,0,0,1-.066-.119.861.861,0,0,1-.047-.134,1.076,1.076,0,0,1-.025-.132c-.005-.045-.008-.09-.009-.136a1.393,1.393,0,0,1,.026-.268,3.08,3.08,0,0,1,.146-.5l.159.213a.678.678,0,0,1-.469-.109.862.862,0,0,1-.3-.358.713.713,0,0,1-.039-.5l.023-.063.006-.016.008-.017.01-.021a1.15,1.15,0,0,1,.062-.1c.041-.061.081-.112.113-.157.016-.023.03-.044.042-.065l.016-.029.006-.014,0,0-.007.016h0v0l0-.011.03-.087a.248.248,0,0,1,0-.048,1.126,1.126,0,0,0-.023-.3c-.021-.111-.054-.228-.084-.355a2.107,2.107,0,0,1-.065-.415.821.821,0,0,1,.131-.484,1.546,1.546,0,0,1,.295-.3.362.362,0,0,0,.076-.1,1.1,1.1,0,0,0,.06-.137,1.311,1.311,0,0,1,.2-.4.5.5,0,0,1,.268-.168l.01,0h.007l.017,0h.011l.023,0a.594.594,0,0,1,.094,0,.5.5,0,0,1,.152.042.913.913,0,0,1,.35.321l.1.146a.651.651,0,0,0,.1.105.312.312,0,0,0,.095.058.077.077,0,0,0,.056,0l-.075.1a.878.878,0,0,1,.074-.173.867.867,0,0,1,.11-.146,1.011,1.011,0,0,1,.136-.116.912.912,0,0,1,.318-.14,1.022,1.022,0,0,1,.172-.021.821.821,0,0,1,.173.016.835.835,0,0,1,.164.057l-.134.1a1.608,1.608,0,0,1,.3-1.052,1.763,1.763,0,0,0-.132.513,1.686,1.686,0,0,0,.027.512l.033.151-.167-.048a.634.634,0,0,0-.122-.022.832.832,0,0,0-.123.005.773.773,0,0,0-.12.03.806.806,0,0,0-.112.053.77.77,0,0,0-.1.072.712.712,0,0,0-.08.087.754.754,0,0,0-.059.1.572.572,0,0,0-.034.1l-.014.06-.061.041a.421.421,0,0,1-.3.056.636.636,0,0,1-.238-.107,1.013,1.013,0,0,1-.171-.153c-.059-.066-.086-.11-.123-.155a.55.55,0,0,0-.2-.178.08.08,0,0,0-.028-.006s.009,0,0,0l-.023,0-.012,0,.014,0h0c-.017.006-.022.011-.039.033a1.361,1.361,0,0,0-.116.278,1.384,1.384,0,0,1-.089.206.816.816,0,0,1-.148.2c-.111.108-.2.169-.228.229a.413.413,0,0,0-.057.228,1.692,1.692,0,0,0,.047.323c.025.117.058.24.082.375a1.372,1.372,0,0,1,.016.443c-.009.046-.02.091-.032.136l-.036.088,0,.011-.01.022,0,.007-.015.028-.031.051c-.021.033-.044.062-.065.089l-.113.141c-.015.02-.029.043-.037.054l-.011.021,0,.005c0-.007,0,0,0,0l0,.005-.011.024a.367.367,0,0,0,0,.235.506.506,0,0,0,.156.221.372.372,0,0,0,.237.083l.268,0-.109.216a2.794,2.794,0,0,0-.185.435,1.482,1.482,0,0,0-.05.222c0,.037-.008.074-.009.112a.835.835,0,0,0,0,.114.705.705,0,0,0,.02.1.776.776,0,0,0,.039.1.7.7,0,0,0,.126.19.612.612,0,0,0,.187.137.512.512,0,0,0,.114.036A.5.5,0,0,0,527.811,114.22Z" transform="translate(-526.48 -93.082)" fill="#47a01a"/><path d="M541.413,104.233a1.71,1.71,0,0,1,.215-.628,1.008,1.008,0,0,1,.1-.143c.008-.01.023-.025.031-.034s.017-.019.029-.03.049-.044.072-.063a.9.9,0,0,1,.336-.171.783.783,0,0,1,.407,0c.019.006.031.009.056.018s.022.007.042.017a.792.792,0,0,1,.091.046c.055.031.1.064.146.091a1.283,1.283,0,0,0,.117.069.249.249,0,0,0,.044.018.271.271,0,0,0,.043.009.159.159,0,0,0,.065,0c.013-.005.006-.006,0,0l0,.269a.382.382,0,0,1-.08-.254.413.413,0,0,1,.094-.223.621.621,0,0,1,.281-.185.63.63,0,0,1,.331-.02c.073.016.15.038.209.054a.74.74,0,0,0,.155.027c.039,0,.047,0,.059-.01s.032-.035.067-.106l.031-.057.025-.042.016-.021a.67.67,0,0,1,.1-.112.89.89,0,0,1,.492-.188,1.423,1.423,0,0,1,.232-.006c.076,0,.147.009.222.017a.984.984,0,0,1,.233.048.518.518,0,0,1,.215.134.368.368,0,0,1,.091.234.222.222,0,0,1-.1.2.236.236,0,0,0-.083-.325.569.569,0,0,0-.357-.044c-.067.007-.139.015-.2.026s-.131.023-.192.038a.539.539,0,0,0-.281.148.08.08,0,0,0-.016.019l-.007.008-.014.023-.014.023.006-.01h0v0l0,0,0,.008-.016.039a.633.633,0,0,1-.155.255.508.508,0,0,1-.334.133,1.124,1.124,0,0,1-.268-.029l-.206-.048a.192.192,0,0,0-.09.011.2.2,0,0,0-.075.041s.006-.006.008-.032a.066.066,0,0,0-.015-.055l0,.269a.455.455,0,0,1-.259.167.571.571,0,0,1-.253,0,.713.713,0,0,1-.111-.033.685.685,0,0,1-.1-.05,1.239,1.239,0,0,1-.151-.106c-.043-.035-.082-.066-.117-.091l-.048-.033a.285.285,0,0,0-.03-.017l-.02-.01a.434.434,0,0,0-.226-.033.746.746,0,0,0-.252.074c-.021.011-.039.021-.057.032s-.021.015-.032.022a.341.341,0,0,0-.027.02,1.107,1.107,0,0,0-.111.094A2.6,2.6,0,0,0,541.413,104.233Z" transform="translate(-537.263 -89.223)" fill="#47a01a"/><path d="M560.054,103.374a.911.911,0,0,1,.372-.332.852.852,0,0,1,.542-.075l.067.016c.023.008.052.019.078.03a.8.8,0,0,1,.346.292.737.737,0,0,1,.128.466.7.7,0,0,1-.036.171l-.573,1.7.132-1.791a.55.55,0,0,1,.069-.228.574.574,0,0,1,.148-.166.718.718,0,0,1,.36-.142.725.725,0,0,1,.19,0,.908.908,0,0,1,.173.046,1.334,1.334,0,0,1,.276.149c.081.055.152.112.222.165.037.028.064.051.1.078a1,1,0,0,0,.1.063.8.8,0,0,0,.228.089.482.482,0,0,0,.258-.011.442.442,0,0,1-.255.147.832.832,0,0,1-.307,0,1.249,1.249,0,0,1-.151-.04c-.042-.013-.1-.034-.137-.051l-.248-.113a1.282,1.282,0,0,0-.219-.077.521.521,0,0,0-.093-.014.466.466,0,0,0-.082.007.339.339,0,0,0-.14.061.11.11,0,0,0-.044.066l-.441-.094a.462.462,0,0,0,.015-.057.35.35,0,0,0,0-.064.406.406,0,0,0-.041-.141.5.5,0,0,0-.095-.133.7.7,0,0,0-.062-.054l-.028-.02-.027-.013-.013-.007-.007,0h0l.006,0a.675.675,0,0,0-.178-.053.876.876,0,0,0-.2,0A1.323,1.323,0,0,0,560.054,103.374Z" transform="translate(-550.724 -89.514)" fill="#47a01a"/><path d="M562.907,113.656s-.038-.086-.1-.238c-.016-.038-.028-.082-.05-.124s-.045-.089-.07-.137l-.077-.153-.1-.165c-.064-.116-.154-.232-.239-.358s-.193-.249-.3-.381-.218-.263-.337-.4l-.355-.412c-.119-.141-.239-.28-.352-.425s-.222-.29-.324-.434-.191-.291-.268-.436l-.111-.211c-.035-.068-.059-.141-.087-.206s-.053-.129-.075-.19l-.047-.18c-.014-.056-.029-.108-.039-.156s-.012-.1-.018-.137c-.018-.165-.022-.257-.022-.257s.044.085.109.231a2.141,2.141,0,0,0,.133.254l.085.152.107.161c.07.114.161.228.251.352s.2.245.3.376l.7.807a9.459,9.459,0,0,1,.671.867,4.781,4.781,0,0,1,.26.443,2.806,2.806,0,0,1,.185.424c.024.068.048.132.068.194l.039.185c.012.058.024.11.032.16s.007.094.01.135C562.907,113.561,562.907,113.656,562.907,113.656Z" transform="translate(-550.645 -93.635)" fill="#47a01a"/><path d="M569.22,114.536a.753.753,0,0,1-.055-.073,1.178,1.178,0,0,1-.108-.2,1.463,1.463,0,0,1-.087-.3,1.679,1.679,0,0,1,.024-.7,1.454,1.454,0,0,1,.108-.294,1.178,1.178,0,0,1,.122-.195.7.7,0,0,1,.06-.069.785.785,0,0,1,.029.087c.016.054.034.13.051.218a3.05,3.05,0,0,1,.038.62,3.1,3.1,0,0,1-.083.616c-.023.087-.046.159-.066.213A.754.754,0,0,1,569.22,114.536Z" transform="translate(-557.144 -96.552)" fill="#47a01a"/><path d="M554.918,111.107l-.015-.059c-.01-.038-.021-.1-.044-.164s-.052-.147-.087-.238-.09-.186-.149-.287a3.332,3.332,0,0,0-.217-.312c-.081-.108-.175-.215-.275-.324-.2-.218-.434-.437-.674-.654a8.757,8.757,0,0,1-.7-.692,3.9,3.9,0,0,1-.286-.365,2.844,2.844,0,0,1-.213-.361c-.028-.059-.054-.116-.077-.17l-.056-.159a1.8,1.8,0,0,1-.06-.265,1.156,1.156,0,0,1-.016-.172l0-.061.028.054c.018.035.041.087.077.15s.081.136.132.22.122.169.2.262a6.378,6.378,0,0,0,.569.584l.716.637a5.2,5.2,0,0,1,.679.736,3.09,3.09,0,0,1,.252.4,2.369,2.369,0,0,1,.166.39c.02.063.036.124.051.182l.028.167a1.582,1.582,0,0,1,.008.275,1.011,1.011,0,0,1-.02.171Z" transform="translate(-544.942 -92.311)" fill="#47a01a"/><path d="M546.884,113.117s-.043-.055-.11-.154l-.126-.167c-.052-.062-.106-.133-.171-.206s-.136-.149-.212-.228-.161-.156-.248-.234l-.137-.115-.145-.111c-.1-.071-.2-.143-.308-.206a4.014,4.014,0,0,0-.654-.322c-.109-.042-.217-.078-.333-.117a1.286,1.286,0,0,1-.325-.162.605.605,0,0,1-.211-.247.484.484,0,0,1-.049-.238.314.314,0,0,1,.043-.144.247.247,0,0,1,.029-.041.386.386,0,0,0,0,.049.32.32,0,0,0,.022.125.448.448,0,0,0,.1.151.511.511,0,0,0,.192.114,1.514,1.514,0,0,0,.282.058,3.443,3.443,0,0,1,.367.063,2.528,2.528,0,0,1,.393.127,2.833,2.833,0,0,1,.381.193,3.056,3.056,0,0,1,.346.25,2.915,2.915,0,0,1,.294.288,2.825,2.825,0,0,1,.23.307,2.333,2.333,0,0,1,.163.3,2.091,2.091,0,0,1,.1.266c.026.082.042.155.056.214C546.877,113.048,546.884,113.117,546.884,113.117Z" transform="translate(-539.025 -94.912)" fill="#47a01a"/><path d="M537,116.232a1.06,1.06,0,0,1-.079.091,1.818,1.818,0,0,1-.235.207,1.531,1.531,0,0,1-.4.211,1.208,1.208,0,0,1-.554.056.908.908,0,0,1-.146-.035.778.778,0,0,1-.15-.064.9.9,0,0,1-.232-.177.811.811,0,0,1-.225-.451.593.593,0,0,1,.009-.2.432.432,0,0,1,.057-.14.3.3,0,0,1,.058-.073l.023-.022v.032a.461.461,0,0,0,.007.084.585.585,0,0,0,.029.114.652.652,0,0,0,.068.124.743.743,0,0,0,.1.121.889.889,0,0,0,.137.108.969.969,0,0,0,.158.083c.029.011.056.02.075.025a.613.613,0,0,0,.091.02,2.525,2.525,0,0,0,.784-.057c.12-.02.224-.037.3-.045S537,116.232,537,116.232Z" transform="translate(-532.613 -98.671)" fill="#47a01a"/><path d="M547.728,125.83a1.025,1.025,0,0,1-.03.1.551.551,0,0,1-.049.113.875.875,0,0,1-.086.14,1.081,1.081,0,0,1-.124.146,1.324,1.324,0,0,1-.361.258,1.356,1.356,0,0,1-.453.142,1.38,1.38,0,0,1-.23.016,1.4,1.4,0,0,1-.214-.022,1.1,1.1,0,0,1-.186-.05.847.847,0,0,1-.148-.066.611.611,0,0,1-.106-.066.789.789,0,0,1-.085-.069s.041-.01.106-.019.156-.024.259-.044a5.846,5.846,0,0,0,.7-.168c.06-.021.122-.038.181-.061l.175-.064c.055-.025.113-.044.165-.068s.1-.044.151-.066c.1-.043.174-.078.237-.111A.952.952,0,0,1,547.728,125.83Z" transform="translate(-540.327 -106.035)" fill="#47a01a"/><path d="M562.2,131.427s-.035.029-.1.073l-.244.172a2.3,2.3,0,0,0-.292.236c-.022.023-.044.046-.065.069l-.063.076-.135.181a1.32,1.32,0,0,1-.4.376l-.027.015-.013.006-.026.011a.786.786,0,0,1-.083.028.641.641,0,0,1-.148.017.619.619,0,0,1-.249-.055.384.384,0,0,1-.238-.28.206.206,0,0,1,.008-.1.3.3,0,0,1,.011-.03l.015.028a.218.218,0,0,0,.048.062.294.294,0,0,0,.22.059.487.487,0,0,0,.142-.03.376.376,0,0,0,.062-.031c.006-.007.005-.006.019-.015l.023-.017.011-.008h0l-.011.006h0l0,0,0,0a2.2,2.2,0,0,0,.258-.314,2.174,2.174,0,0,1,.168-.2c.017-.017.037-.038.052-.051l.022-.019.015-.013.014-.011a.942.942,0,0,1,.113-.08,1.189,1.189,0,0,1,.44-.159A1.315,1.315,0,0,1,562.2,131.427Z" transform="translate(-550.77 -110.064)" fill="#47a01a"/><path d="M580.922,122.266l.076-.046.089-.033.093-.016h.1c.031,0,.064.007.1.013l.094.028.091.039.086.049a.9.9,0,0,1,.153.132l.065.081.055.091c.015.033.029.066.043.1s.018.073.026.109.006.076.008.114l-.012.116-.014.131h-.171a1.7,1.7,0,0,0-.552.091.54.54,0,0,0-.192.113.161.161,0,0,0-.039.059.069.069,0,0,0-.008.029.08.08,0,0,0,0,.034v.014h0s0-.037,0-.019h0v0l.007.039a.233.233,0,0,0,.007.035.07.07,0,0,1,.007.014.321.321,0,0,0,.018.042.374.374,0,0,0,.028.054,1.232,1.232,0,0,0,.075.117l.09.126c.032.044.065.092.1.142l.049.083c.015.033.031.062.044.1a.515.515,0,0,1,.034.265.414.414,0,0,1-.048.144.71.71,0,0,1-.083.109l-.031.036-.049.015a3.417,3.417,0,0,1-.617.119c-.1.011-.209.012-.312.013a2.51,2.51,0,0,1-.31-.018l.094-.092c-.033.2-.072.391-.12.586-.032-.2-.054-.4-.071-.594l-.006-.075.1-.016q.146-.024.288-.052c.1-.019.188-.044.281-.069a4.369,4.369,0,0,0,.541-.184l-.08.051c0-.009.009-.016.01-.021s0,0,0-.008a.191.191,0,0,0-.017-.046c-.006-.014-.018-.031-.026-.046l-.036-.054c-.028-.038-.057-.077-.09-.118s-.066-.084-.1-.131a1.728,1.728,0,0,1-.1-.152.78.78,0,0,1-.047-.087.606.606,0,0,1-.042-.106l-.018-.063a.39.39,0,0,1-.008-.044l-.006-.039v-.005l0-.021V123.5a.481.481,0,0,1,.013-.124.42.42,0,0,1,.041-.123.61.61,0,0,1,.147-.2.9.9,0,0,1,.365-.193,1.544,1.544,0,0,1,.361-.056,1.763,1.763,0,0,1,.353.02l-.185.132c0-.019.01-.037.016-.056l.006-.06c0-.02,0-.041,0-.063l-.012-.065-.023-.065-.032-.064-.04-.061c-.016-.019-.032-.038-.048-.058l-.054-.054-.061-.048a.913.913,0,0,0-.138-.075l-.077-.024-.081-.013-.083,0Z" transform="translate(-565.055 -103.394)" fill="#47a01a"/></g></g></svg>